<svg xmlns="http://www.w3.org/2000/svg" version="1.1" xmlns:xlink="http://www.w3.org/1999/xlink" xmlns:svgjs="http://svgjs.dev/svgjs" width="1000" height="1000" viewBox="0 0 1000 1000"><rect width="1000" height="1000" fill="#000000"></rect><g transform="matrix(0.7,0,0,0.7,149.57575757575756,285.3856406867342)"><svg viewBox="0 0 396 249" data-background-color="#853131" preserveAspectRatio="xMidYMid meet" height="628" width="1000" xmlns="http://www.w3.org/2000/svg" xmlns:xlink="http://www.w3.org/1999/xlink"><g id="tight-bounds" transform="matrix(1,0,0,1,0.2400000000000091,-0.12867002706460084)"><svg viewBox="0 0 395.52 247.2" height="247.2" width="395.52"><g><svg></svg></g><g><svg viewBox="0 0 395.52 247.2" height="247.2" width="395.52"><g transform="matrix(1,0,0,1,148.63651915943825,65.92)"><svg viewBox="0 0 98.24696168112347 115.35999999999999" height="115.35999999999999" width="98.24696168112347"><g><svg viewBox="0 0 98.24696168112347 115.35999999999999" height="115.35999999999999" width="98.24696168112347"><g><svg viewBox="0 0 172.78952048 202.8866719285284" height="115.35999999999999" width="98.24696168112347"><g><svg viewBox="0 0 172.78952048 202.8866719285284" height="202.8866719285284" width="172.78952048"><g><svg viewBox="0 0 172.78952048 202.8866719285284" height="202.8866719285284" width="172.78952048"><g><svg viewBox="0 0 172.78952048 114.64707519999999" height="114.64707519999999" width="172.78952048"><g transform="matrix(1,0,0,1,0,0)"><svg width="172.78952048" viewBox="5.25 -35 52.75 35" height="114.64707519999999" data-palette-color="#fcb216"><path d="M42.5 0L37.7 0 37.65-25.5 25-4.25 22.7-4.25 10.05-25.35 10.05 0 5.25 0 5.25-35 9.35-35 23.95-10.4 38.35-35 42.45-35 42.5 0ZM53 0L53-35 58-35 58 0 53 0Z" opacity="1" transform="matrix(1,0,0,1,0,0)" fill="#ffffff" class="undefined-text-0" data-fill-palette-color="primary" id="text-0"></path></svg></g></svg></g><g transform="matrix(1,0,0,1,0,141.7124981249152)"><svg viewBox="0 0 172.78952048 61.17417380361319" height="61.17417380361319" width="172.78952048"><g transform="matrix(1,0,0,1,0,0)"><svg width="172.78952048" viewBox="1.100000023841858 -37.5 107.30000305175781 37.9900016784668" height="61.17417380361319" data-palette-color="#000000"><path d="M18.33-35.55L18.33 0 12.08 0 12.08-35.55 18.33-35.55ZM29.42-35.55L29.42-30.47 1.1-30.47 1.1-35.55 29.42-35.55ZM45.19 0.49L45.19 0.49Q41.26 0.49 38.4-1.21 35.55-2.91 34.01-5.8 32.47-8.69 32.47-12.28L32.47-12.28 32.47-13.28Q32.47-17.41 34.03-20.47 35.6-23.54 38.32-25.22 41.04-26.9 44.48-26.9L44.48-26.9Q48.29-26.9 50.81-25.26 53.32-23.61 54.57-20.69 55.81-17.77 55.81-13.94L55.81-13.94 55.81-11.33 35.38-11.33 35.38-15.7 49.83-15.7 49.83-16.16Q49.78-17.7 49.24-19.04 48.71-20.39 47.55-21.22 46.39-22.05 44.46-22.05L44.46-22.05Q42.53-22.05 41.21-20.96 39.89-19.87 39.21-17.91 38.53-15.94 38.53-13.28L38.53-13.28 38.53-12.28Q38.53-10.03 39.36-8.25 40.19-6.47 41.77-5.43 43.36-4.39 45.56-4.39L45.56-4.39Q47.68-4.39 49.33-5.22 50.98-6.05 52.17-7.62L52.17-7.62 55.35-4.44Q54.1-2.56 51.6-1.04 49.1 0.49 45.19 0.49ZM71.17-4.37L71.17-4.37Q72.58-4.37 73.73-4.94 74.88-5.52 75.56-6.52 76.25-7.52 76.32-8.81L76.32-8.81 82.03-8.81Q81.96-6.2 80.49-4.1 79.03-2 76.61-0.76 74.19 0.49 71.22 0.49L71.22 0.49Q67.19 0.49 64.51-1.31 61.84-3.1 60.52-6.12 59.2-9.13 59.2-12.79L59.2-12.79 59.2-13.62Q59.2-17.29 60.52-20.3 61.84-23.32 64.51-25.11 67.19-26.9 71.22-26.9L71.22-26.9Q74.41-26.9 76.82-25.65 79.22-24.39 80.59-22.14 81.96-19.9 82.03-16.89L82.03-16.89 76.32-16.89Q76.25-18.31 75.62-19.48 75-20.65 73.86-21.35 72.73-22.05 71.14-22.05L71.14-22.05Q68.8-22.05 67.52-20.83 66.24-19.6 65.75-17.68 65.26-15.75 65.26-13.62L65.26-13.62 65.26-12.79Q65.26-10.64 65.73-8.72 66.21-6.79 67.5-5.58 68.8-4.37 71.17-4.37ZM92.43-37.5L92.43 0 86.38 0 86.38-37.5 92.43-37.5ZM91.38-14.16L89.43-14.14Q89.45-17.82 90.73-20.7 92.02-23.58 94.34-25.24 96.66-26.9 99.76-26.9L99.76-26.9Q102.37-26.9 104.31-25.92 106.25-24.93 107.32-22.74 108.4-20.56 108.4-16.92L108.4-16.92 108.4 0 102.32 0 102.32-16.97Q102.32-18.82 101.78-19.92 101.25-21.02 100.21-21.48 99.17-21.95 97.68-21.95L97.68-21.95Q96.12-21.95 94.95-21.35 93.77-20.75 92.97-19.68 92.16-18.6 91.77-17.19 91.38-15.77 91.38-14.16L91.38-14.16Z" opacity="1" transform="matrix(1,0,0,1,0,0)" fill="#ffffff" class="undefined-text-1" data-fill-palette-color="secondary" id="text-1"></path></svg></g></svg></g></svg></g></svg></g></svg></g></svg></g></svg></g><g mask="url(#c2fcc069-7222-41c0-b861-5b87fe376656)"><g transform="matrix(4.109368120574744, 0, 0, 4.109368120574744, 74.44076965812648, 1)"><svg xmlns="http://www.w3.org/2000/svg" viewBox="20 20.17376136779785 60.018585205078125 59.668540954589844" x="0" y="0" height="59.668540954589844" width="60.018585205078125" class="icon-none" data-fill-palette-color="accent" id="none"><g data-name="Calque 2" fill="#3a0909" data-fill-palette-color="accent"><path d="M23.82 23.07A1.82 1.82 0 1 1 22 24.88 1.82 1.82 0 0 1 23.82 23.07Zm0 5.58a3.73 3.73 0 0 0 2-0.56c2.07 1.44 9.08 6.45 10.21 7.14a6.25 6.25 0 0 0 3.19 1.25c0.63 0 2 0.06 4.13 0.06A2.75 2.75 0 0 0 45.8 38a2.76 2.76 0 1 0-2.69-3.32c-1.94 0-3.26 0-3.82-0.06A3.81 3.81 0 0 1 37 33.71c-1-0.63-7.64-5.39-9.9-7A4 4 0 0 0 27.57 25a3.7 3.7 0 0 0-3.7-3.7 3.74 3.74 0 0 0-3.7 3.7A3.6 3.6 0 0 0 23.82 28.64Z" fill="#ffffff" data-fill-palette-color="accent"></path><path d="M22.13 44.61a1.82 1.82 0 1 1 1.82 1.82A1.78 1.78 0 0 1 22.13 44.61Zm5.39 0.94H33a2.71 2.71 0 0 0 2.57 1.82 2.76 2.76 0 0 0 0-5.51A2.71 2.71 0 0 0 33 43.67H27.52a3.76 3.76 0 0 0-3.57-2.76 3.7 3.7 0 0 0-3.7 3.7 3.74 3.74 0 0 0 3.7 3.7A3.52 3.52 0 0 0 27.52 45.55Z" fill="#ffffff" data-fill-palette-color="accent"></path><path d="M28.33 49.87a1.82 1.82 0 1 1-1.82 1.82A1.82 1.82 0 0 1 28.33 49.87Zm0 5.58a3.7 3.7 0 0 0 3.57-2.76H33a2.72 2.72 0 0 0 2.57 1.82 2.76 2.76 0 0 0 0-5.51A2.71 2.71 0 0 0 33 50.81H31.9a3.76 3.76 0 0 0-3.57-2.76 3.7 3.7 0 0 0 0 7.39Z" fill="#ffffff" data-fill-palette-color="accent"></path><path d="M23.7 75.24a1.82 1.82 0 1 1 1.82-1.82A1.78 1.78 0 0 1 23.7 75.24Zm1.06-5.39V63.4c0-2.94 1-3.57 2.69-3.57 2.07 0 4.38 0 5.39 0.06a2.73 2.73 0 0 0 2.63 1.82 2.76 2.76 0 1 0 0-5.51A2.71 2.71 0 0 0 32.9 58c-1.06 0-3.38-0.06-5.39-0.06-4.64 0-4.64 4.07-4.64 5.45v6.39A3.76 3.76 0 0 0 20 73.42a3.7 3.7 0 0 0 3.7 3.7 3.74 3.74 0 0 0 3.7-3.7A3.58 3.58 0 0 0 24.76 69.86Z" fill="#ffffff" data-fill-palette-color="accent"></path><path d="M75.06 75.24a1.82 1.82 0 1 1 1.82-1.82A1.82 1.82 0 0 1 75.06 75.24Zm0.81-5.45V63.4c0-1.31 0-5.45-4.57-5.45-2.07 0-4.38 0-5.39 0.06a2.71 2.71 0 0 0-2.57-1.82 2.76 2.76 0 1 0 0 5.51A2.85 2.85 0 0 0 66 59.9c1.06 0 3.38-0.06 5.39-0.06C73 59.83 74 60.4 74 63.4v6.45a3.7 3.7 0 0 0 1 7.26 3.71 3.71 0 0 0 0.82-7.33Z" fill="#ffffff" data-fill-palette-color="accent"></path><path d="M72.42 23.69A1.57 1.57 0 1 1 74 25.26 1.59 1.59 0 0 1 72.42 23.69ZM63.59 47.37A2.76 2.76 0 0 0 66 45.86h4.57c4.26 0 4.26-3.76 4.26-5V27a3.46 3.46 0 1 0-4.26-3.38A3.44 3.44 0 0 0 73.05 27v13.9c0 2.63-0.82 3.13-2.38 3.13H66.35a2.75 2.75 0 0 0-5.45 0.56A2.63 2.63 0 0 0 63.59 47.37Z" fill="#ffffff" data-fill-palette-color="accent"></path><path d="M76.37 50.13a1.82 1.82 0 1 1-1.82 1.82A1.78 1.78 0 0 1 76.37 50.13Zm-13 4.57A2.71 2.71 0 0 0 66 52.88h6.77a3.76 3.76 0 0 0 3.57 2.76A3.7 3.7 0 1 0 72.74 51H66a2.71 2.71 0 0 0-2.57-1.82 2.78 2.78 0 0 0-2.76 2.76A2.73 2.73 0 0 0 63.4 54.7Z" fill="#ffffff" data-fill-palette-color="accent"></path><rect x="40.48" y="39.98" width="18.04" height="23.93" rx="3.95" ry="3.95" fill="#ffffff" data-fill-palette-color="accent"></rect><path d="M40.48 24.45a1.82 1.82 0 1 1-1.82 1.82A1.86 1.86 0 0 1 40.48 24.45Zm0 5.58A3.7 3.7 0 0 0 44 27.33h6.26c0.69 0 1.31 0 1.57 0.25s0.31 0.44 0.31 1.25c0 1.13 0 2.63-0.06 3.82a2.76 2.76 0 1 0 3.76 2.57 2.76 2.76 0 0 0-1.94-2.63c0-1.19 0.06-2.63 0.06-3.76a3.32 3.32 0 0 0-0.82-2.57 3.69 3.69 0 0 0-2.88-0.75h-6.2A3.71 3.71 0 1 0 40.48 30Z" fill="#ffffff" data-fill-palette-color="accent"></path><path d="M35 76.18a1.82 1.82 0 1 1-1.82-1.82A1.78 1.78 0 0 1 35 76.18ZM45.8 66A2.71 2.71 0 0 0 43.3 67.6h-7c-1.31 0-4.07 0-4.07 3.7v1.25a3.68 3.68 0 0 0 0.88 7.27 3.74 3.74 0 0 0 3.7-3.7 3.7 3.7 0 0 0-2.69-3.57c0-0.37-0.06-0.82-0.06-1.25 0-1.69 0.56-1.82 2.19-1.82h6.83a2.69 2.69 0 0 0 2.63 2 2.78 2.78 0 0 0 2.76-2.76A2.69 2.69 0 0 0 45.8 66Z" fill="#ffffff" data-fill-palette-color="accent"></path><path d="M62.71 78a1.82 1.82 0 0 1-1.82-1.82 1.87 1.87 0 0 1 1.82-1.88 1.82 1.82 0 0 1 1.82 1.82A1.87 1.87 0 0 1 62.71 78Zm0.88-5.45V71.29c0-3.7-2.76-3.7-4.07-3.7H55.7A2.67 2.67 0 0 0 53.2 66a2.76 2.76 0 1 0 2.63 3.51h3.7c1.63 0 2.19 0.12 2.19 1.82a8.09 8.09 0 0 1-0.06 1.25 3.7 3.7 0 1 0 4.7 3.57A3.57 3.57 0 0 0 63.59 72.55Z" fill="#ffffff" data-fill-palette-color="accent"></path></g></svg></g></g></svg></g><defs><mask id="a4135dd6-1ad6-4854-b79f-8fdebd84d61a"><rect width="640" height="400" fill="white"></rect><rect width="138.37271674634144" height="222.12561604599443" fill="black" x="250.81364162682928" y="88.93719197700278" id="transform-me" transform="matrix(1,0,0,1,-122.24000000000001,-76.4)"></rect></mask><mask id="6246af40-95eb-4c0c-afa1-6123b8f1485b"><rect width="640" height="400" fill="white"></rect><rect width="138.37271674634144" height="222.12561604599443" fill="black" x="250.81364162682928" y="88.93719197700278" id="transform-me" transform="matrix(1,0,0,1,-122.24000000000001,-76.4)"></rect></mask><mask id="d7f46055-901c-4e97-881e-95c8eaf74e52"><rect width="640" height="400" fill="white"></rect><rect width="138.37271674634144" height="222.12561604599443" fill="black" x="250.81364162682928" y="88.93719197700278" id="transform-me" transform="matrix(1,0,0,1,-122.24000000000001,-76.4)"></rect></mask><mask id="7d74a4bc-0f50-47d7-93ff-590ca7bc1099"><rect width="640" height="400" fill="white"></rect><rect width="138.37271674634144" height="222.12561604599443" fill="black" x="250.81364162682928" y="88.93719197700278" id="transform-me" transform="matrix(1,0,0,1,-122.24000000000001,-76.4)"></rect></mask><mask id="f70e252c-1f75-4953-96a3-2b8783525720"><rect width="640" height="400" fill="white"></rect><rect width="138.37271674634144" height="222.12561604599443" fill="black" x="250.81364162682928" y="88.93719197700278" id="transform-me" transform="matrix(1,0,0,1,-122.24000000000001,-76.4)"></rect></mask><mask id="6973b8fd-90ca-42f0-9513-464baef9517b"><rect width="640" height="400" fill="white"></rect><rect width="138.37271674634144" height="222.12561604599443" fill="black" x="250.81364162682928" y="88.93719197700278" id="transform-me" transform="matrix(1,0,0,1,-122.24000000000001,-76.4)"></rect></mask><mask id="57fea3ce-17d9-4d86-b623-d0d49276dbcc"><rect width="640" height="400" fill="white"></rect><rect width="138.37271674634144" height="222.12561604599443" fill="black" x="250.81364162682928" y="88.93719197700278" id="transform-me" transform="matrix(1,0,0,1,-122.24000000000001,-76.4)"></rect></mask><mask id="eeb907d4-baf0-4914-a720-ebc6b69cdf38"><rect width="640" height="400" fill="white"></rect><rect width="138.37271674634144" height="222.12561604599443" fill="black" x="250.81364162682928" y="88.93719197700278" id="transform-me" transform="matrix(1,0,0,1,-122.24000000000001,-76.4)"></rect></mask><mask id="1b28aba2-b3bf-439d-a3d6-f1c92336c3d9"><rect width="640" height="400" fill="white"></rect><rect width="138.37271674634144" height="222.12561604599443" fill="black" x="250.81364162682928" y="88.93719197700278" id="transform-me" transform="matrix(1,0,0,1,-122.24000000000001,-76.4)"></rect></mask><mask id="d04bccf2-f2ea-47d3-8bae-d70af6adebee"><rect width="640" height="400" fill="white"></rect><rect width="138.37271674634144" height="222.12561604599443" fill="black" x="250.81364162682928" y="88.93719197700278" id="transform-me" transform="matrix(1,0,0,1,-122.24000000000001,-76.4)"></rect></mask><mask id="bbf57876-1b1d-4610-88b3-a995be926f30"><rect width="640" height="400" fill="white"></rect><rect width="138.37271674634144" height="222.12561604599443" fill="black" x="250.81364162682928" y="88.93719197700278" id="transform-me" transform="matrix(1,0,0,1,-122.24000000000001,-76.4)"></rect></mask><mask id="de096bea-40c3-4c8c-a5d4-3f7c31730836"><rect width="640" height="400" fill="white"></rect><rect width="138.37271674634144" height="222.12561604599443" fill="black" x="250.81364162682928" y="88.93719197700278" id="transform-me" transform="matrix(1,0,0,1,-122.24000000000001,-76.4)"></rect></mask><mask id="7994f41a-54cf-4c64-a5eb-49ac0dac8679"><rect width="640" height="400" fill="white"></rect><rect width="138.37271674634144" height="222.12561604599443" fill="black" x="250.81364162682928" y="88.93719197700278" id="transform-me" transform="matrix(1,0,0,1,-122.24000000000001,-76.4)"></rect></mask><mask id="6d004137-4781-47e6-af9e-22afc35e7fb4"><rect width="640" height="400" fill="white"></rect><rect width="138.37271674634144" height="222.12561604599443" fill="black" x="250.81364162682928" y="88.93719197700278" id="transform-me" transform="matrix(1,0,0,1,-122.24000000000001,-76.4)"></rect></mask><mask id="9e40b399-fb5d-444c-ac96-51b1f2f352c6"><rect width="640" height="400" fill="white"></rect><rect width="138.37271674634144" height="222.12561604599443" fill="black" x="250.81364162682928" y="88.93719197700278" id="transform-me" transform="matrix(1,0,0,1,-122.24000000000001,-76.4)"></rect></mask><mask id="1fbe23da-73ef-4621-ac45-715d79576da4"><rect width="640" height="400" fill="white"></rect><rect width="138.37271674634144" height="222.12561604599443" fill="black" x="250.81364162682928" y="88.93719197700278" id="transform-me" transform="matrix(1,0,0,1,-122.24000000000001,-76.4)"></rect></mask><mask id="c896aa56-5522-42dc-9756-ed14748a4d49"><rect width="640" height="400" fill="white"></rect><rect width="138.37271674634144" height="222.12561604599443" fill="black" x="250.81364162682928" y="88.93719197700278" id="transform-me" transform="matrix(1,0,0,1,-122.24000000000001,-76.4)"></rect></mask><mask id="be210ff9-005a-4809-8594-7c19455eceaa"><rect width="640" height="400" fill="white"></rect><rect width="138.37271674634144" height="222.12561604599443" fill="black" x="250.81364162682928" y="88.93719197700278" id="transform-me" transform="matrix(1,0,0,1,-122.24000000000001,-76.4)"></rect></mask><mask id="ab187f24-9355-45a7-8060-cb638ba0781b"><rect width="640" height="400" fill="white"></rect><rect width="138.37271674634144" height="222.12561604599443" fill="black" x="250.81364162682928" y="88.93719197700278" id="transform-me" transform="matrix(1,0,0,1,-122.24000000000001,-76.4)"></rect></mask><mask id="574816b1-efc5-48b7-8889-0658e0fa8ff9"><rect width="640" height="400" fill="white"></rect><rect width="138.37271674634144" height="222.12561604599443" fill="black" x="250.81364162682928" y="88.93719197700278" id="transform-me" transform="matrix(1,0,0,1,-122.24000000000001,-76.4)"></rect></mask><mask id="9c1f1f0b-7e5e-47e0-9b95-8b5797531d96"><rect width="640" height="400" fill="white"></rect><rect width="138.37271674634144" height="222.12561604599443" fill="black" x="250.81364162682928" y="88.93719197700278" id="transform-me" transform="matrix(1,0,0,1,-122.24000000000001,-76.4)"></rect></mask><mask id="089a709d-4bf3-4337-87ae-05615cd7db3d"><rect width="640" height="400" fill="white"></rect><rect width="138.37271674634144" height="222.12561604599443" fill="black" x="250.81364162682928" y="88.93719197700278" id="transform-me" transform="matrix(1,0,0,1,-122.24000000000001,-76.4)"></rect></mask><mask id="4d34feed-bc03-44c3-9fe9-35f73ad04b7b"><rect width="640" height="400" fill="white"></rect><rect width="138.37271674634144" height="222.12561604599443" fill="black" x="250.81364162682928" y="88.93719197700278" id="transform-me" transform="matrix(1,0,0,1,-122.24000000000001,-76.4)"></rect></mask><mask id="2cb5a461-c819-4fa9-9a4b-b010f47adc17"><rect width="640" height="400" fill="white"></rect><rect width="138.37271674634144" height="222.12561604599443" fill="black" x="250.81364162682928" y="88.93719197700278" id="transform-me" transform="matrix(1,0,0,1,-122.24000000000001,-76.4)"></rect></mask><mask id="7cedab24-5aec-4cc1-a137-41194bd233e8"><rect width="640" height="400" fill="white"></rect><rect width="138.37271674634144" height="222.12561604599443" fill="black" x="250.81364162682928" y="88.93719197700278" id="transform-me" transform="matrix(1,0,0,1,-122.24000000000001,-76.4)"></rect></mask><mask id="2f77eee0-e449-4164-8d13-a6728fadef49"><rect width="640" height="400" fill="white"></rect><rect width="138.37271674634144" height="222.12561604599443" fill="black" x="250.81364162682928" y="88.93719197700278" id="transform-me" transform="matrix(1,0,0,1,-122.24000000000001,-76.4)"></rect></mask><mask id="5785e239-403f-4d47-887b-6135ece8979b"><rect width="640" height="400" fill="white"></rect><rect width="138.37271674634144" height="222.12561604599443" fill="black" x="250.81364162682928" y="88.93719197700278" id="transform-me" transform="matrix(1,0,0,1,-122.24000000000001,-76.4)"></rect></mask><mask id="9bf12d08-9b0b-4dc6-a777-445786c1ecba"><rect width="640" height="400" fill="white"></rect><rect width="138.37271674634144" height="222.12561604599443" fill="black" x="250.81364162682928" y="88.93719197700278" id="transform-me" transform="matrix(1,0,0,1,-122.24000000000001,-76.4)"></rect></mask><mask id="6f95aa4a-1a57-4dd3-9f6e-be07f4f7879d"><rect width="640" height="400" fill="white"></rect><rect width="138.37271674634144" height="222.12561604599443" fill="black" x="250.81364162682928" y="88.93719197700278" id="transform-me" transform="matrix(1,0,0,1,-122.24000000000001,-76.4)"></rect></mask><mask id="7c0f1445-2bd5-463e-b404-3af741d1ad2b"><rect width="640" height="400" fill="white"></rect><rect width="138.37271674634144" height="222.12561604599443" fill="black" x="250.81364162682928" y="88.93719197700278" id="transform-me" transform="matrix(1,0,0,1,-122.24000000000001,-76.4)"></rect></mask><mask id="719d0a20-0a1c-4f9c-a48b-bffc834cb87d"><rect width="640" height="400" fill="white"></rect><rect width="138.37271674634144" height="222.12561604599443" fill="black" x="250.81364162682928" y="88.93719197700278" id="transform-me" transform="matrix(1,0,0,1,-122.24000000000001,-76.4)"></rect></mask><mask id="1cd8ffa3-bf5d-40cb-a045-c5547e4a0487"><rect width="640" height="400" fill="white"></rect><rect width="138.37271674634144" height="222.12561604599443" fill="black" x="250.81364162682928" y="88.93719197700278" id="transform-me" transform="matrix(1,0,0,1,-122.24000000000001,-76.4)"></rect></mask><mask id="81c4b180-0949-4f9a-a177-c77a156ce02e"><rect width="640" height="400" fill="white"></rect><rect width="138.37271674634144" height="222.12561604599443" fill="black" x="250.81364162682928" y="88.93719197700278" id="transform-me" transform="matrix(1,0,0,1,-122.24000000000001,-76.4)"></rect></mask><mask id="04a24971-7e90-4193-a676-edb35dd14a34"><rect width="640" height="400" fill="white"></rect><rect width="138.37271674634144" height="222.12561604599443" fill="black" x="250.81364162682928" y="88.93719197700278" id="transform-me" transform="matrix(1,0,0,1,-122.24000000000001,-76.4)"></rect></mask><mask id="0dc465eb-941d-4ff1-8b87-e54a703108ca"><rect width="640" height="400" fill="white"></rect><rect width="138.37271674634144" height="222.12561604599443" fill="black" x="250.81364162682928" y="88.93719197700278" id="transform-me" transform="matrix(1,0,0,1,-122.24000000000001,-76.4)"></rect></mask><mask id="3d42b872-6f0b-450d-a74f-72ad44860cf0"><rect width="640" height="400" fill="white"></rect><rect width="138.37271674634144" height="222.12561604599443" fill="black" x="250.81364162682928" y="88.93719197700278" id="transform-me" transform="matrix(1,0,0,1,-122.24000000000001,-76.4)"></rect></mask><mask id="85815875-9e60-4418-9936-f5f1e2cd3e5c"><rect width="640" height="400" fill="white"></rect><rect width="138.37271674634144" height="222.12561604599443" fill="black" x="250.81364162682928" y="88.93719197700278" id="transform-me" transform="matrix(1,0,0,1,-122.24000000000001,-76.4)"></rect></mask><mask id="a847df37-1003-466f-a20f-b269a2fb1845"><rect width="640" height="400" fill="white"></rect><rect width="138.37271674634144" height="222.12561604599443" fill="black" x="250.81364162682928" y="88.93719197700278" id="transform-me" transform="matrix(1,0,0,1,-122.24000000000001,-76.4)"></rect></mask><mask id="db509e81-443b-40aa-9694-f2d1190b0899"><rect width="640" height="400" fill="white"></rect><rect width="138.37271674634144" height="222.12561604599443" fill="black" x="250.81364162682928" y="88.93719197700278" id="transform-me" transform="matrix(1,0,0,1,-122.24000000000001,-76.4)"></rect></mask><mask id="841620ff-a7fc-4675-8fe1-efa85f570d4f"><rect width="640" height="400" fill="white"></rect><rect width="138.37271674634144" height="222.12561604599443" fill="black" x="250.81364162682928" y="88.93719197700278" id="transform-me" transform="matrix(1,0,0,1,-122.24000000000001,-76.4)"></rect></mask><mask id="a38800bf-49d6-4bd0-8166-949801a70f67"><rect width="640" height="400" fill="white"></rect><rect width="138.37271674634144" height="222.12561604599443" fill="black" x="250.81364162682928" y="88.93719197700278" id="transform-me" transform="matrix(1,0,0,1,-122.24000000000001,-76.4)"></rect></mask><mask id="e09b3fae-1f8d-4dfe-aa58-7196a9806bf9"><rect width="640" height="400" fill="white"></rect><rect width="138.37271674634144" height="222.12561604599443" fill="black" x="250.81364162682928" y="88.93719197700278" id="transform-me" transform="matrix(1,0,0,1,-122.24000000000001,-76.4)"></rect></mask><mask id="e154d63e-0086-4786-a636-e1dd8d62d50e"><rect width="640" height="400" fill="white"></rect><rect width="138.37271674634144" height="222.12561604599443" fill="black" x="250.81364162682928" y="88.93719197700278" id="transform-me" transform="matrix(1,0,0,1,-122.24000000000001,-76.4)"></rect></mask><mask id="e00eb9e4-daa8-481b-a7f3-6362d4621518"><rect width="640" height="400" fill="white"></rect><rect width="138.37271674634144" height="222.12561604599443" fill="black" x="250.81364162682928" y="88.93719197700278" id="transform-me" transform="matrix(1,0,0,1,-122.24000000000001,-76.4)"></rect></mask><mask id="7c6a2fd6-67e9-4a91-a39c-cb2f21922136"><rect width="640" height="400" fill="white"></rect><rect width="138.37271674634144" height="222.12561604599443" fill="black" x="250.81364162682928" y="88.93719197700278" id="transform-me" transform="matrix(1,0,0,1,-122.24000000000001,-76.4)"></rect></mask><mask id="ded9feea-835d-4ba7-addd-39ba5475229b"><rect width="640" height="400" fill="white"></rect><rect width="138.37271674634144" height="222.12561604599443" fill="black" x="250.81364162682928" y="88.93719197700278" id="transform-me" transform="matrix(1,0,0,1,-122.24000000000001,-76.4)"></rect></mask><mask id="1c3830c9-070d-426b-ba18-5815abfacea8"><rect width="640" height="400" fill="white"></rect><rect width="138.37271674634144" height="222.12561604599443" fill="black" x="250.81364162682928" y="88.93719197700278" id="transform-me" transform="matrix(1,0,0,1,-122.24000000000001,-76.4)"></rect></mask><mask id="43581996-70a5-4087-8fa0-5e22ff69f352"><rect width="640" height="400" fill="white"></rect><rect width="138.37271674634144" height="222.12561604599443" fill="black" x="250.81364162682928" y="88.93719197700278" id="transform-me" transform="matrix(1,0,0,1,-122.24000000000001,-76.4)"></rect></mask><mask id="24daedde-5dae-488c-bbdf-0400acd9a273"><rect width="640" height="400" fill="white"></rect><rect width="138.37271674634144" height="222.12561604599443" fill="black" x="250.81364162682928" y="88.93719197700278" id="transform-me" transform="matrix(1,0,0,1,-122.24000000000001,-76.4)"></rect></mask><mask id="b14b89e3-ed36-4b16-8a23-e35a3c5abe08"><rect width="640" height="400" fill="white"></rect><rect width="138.37271674634144" height="222.12561604599443" fill="black" x="250.81364162682928" y="88.93719197700278" id="transform-me" transform="matrix(1,0,0,1,-122.24000000000001,-76.4)"></rect></mask><mask id="b4048cbc-b7b9-4b07-ace8-1e4003772828"><rect width="640" height="400" fill="white"></rect><rect width="138.37271674634144" height="222.12561604599443" fill="black" x="250.81364162682928" y="88.93719197700278" id="transform-me" transform="matrix(1,0,0,1,-122.24000000000001,-76.4)"></rect></mask><mask id="6ed5d9eb-7668-4c7b-bccc-9c0a03e5c659"><rect width="640" height="400" fill="white"></rect><rect width="138.37271674634144" height="222.12561604599443" fill="black" x="250.81364162682928" y="88.93719197700278" id="transform-me" transform="matrix(1,0,0,1,-122.24000000000001,-76.4)"></rect></mask><mask id="2d2762b6-5f9e-42aa-943c-0534b6476143"><rect width="640" height="400" fill="white"></rect><rect width="138.37271674634144" height="222.12561604599443" fill="black" x="250.81364162682928" y="88.93719197700278" id="transform-me" transform="matrix(1,0,0,1,-122.24000000000001,-76.4)"></rect></mask><mask id="3ad66902-461d-41de-aa26-334c084a984a"><rect width="640" height="400" fill="white"></rect><rect width="138.37271674634144" height="222.12561604599443" fill="black" x="250.81364162682928" y="88.93719197700278" id="transform-me" transform="matrix(1,0,0,1,-122.24000000000001,-76.4)"></rect></mask><mask id="08b090d6-1232-47b1-8e36-f34a76a690cc"><rect width="640" height="400" fill="white"></rect><rect width="138.37271674634144" height="222.12561604599443" fill="black" x="250.81364162682928" y="88.93719197700278" id="transform-me" transform="matrix(1,0,0,1,-122.24000000000001,-76.4)"></rect></mask><mask id="2777ebe2-c4e0-40dd-b1ed-ad2057411f87"><rect width="640" height="400" fill="white"></rect><rect width="138.37271674634144" height="222.12561604599443" fill="black" x="250.81364162682928" y="88.93719197700278" id="transform-me" transform="matrix(1,0,0,1,-122.24000000000001,-76.4)"></rect></mask><mask id="c394600a-e79d-445c-bd88-63dccdae76a3"><rect width="640" height="400" fill="white"></rect><rect width="138.37271674634144" height="222.12561604599443" fill="black" x="250.81364162682928" y="88.93719197700278" id="transform-me" transform="matrix(1,0,0,1,-122.24000000000001,-76.4)"></rect></mask><mask id="ff402953-6b0b-4002-9194-0b17f3040d80"><rect width="640" height="400" fill="white"></rect><rect width="138.37271674634144" height="222.12561604599443" fill="black" x="250.81364162682928" y="88.93719197700278" id="transform-me" transform="matrix(1,0,0,1,-122.24000000000001,-76.4)"></rect></mask><mask id="2f0b185c-53f8-4026-9898-559bafd346fd"><rect width="640" height="400" fill="white"></rect><rect width="138.37271674634144" height="222.12561604599443" fill="black" x="250.81364162682928" y="88.93719197700278" id="transform-me" transform="matrix(1,0,0,1,-122.24000000000001,-76.4)"></rect></mask><mask id="a8e28622-a063-4e10-832c-53ba7a0ce93e"><rect width="640" height="400" fill="white"></rect><rect width="138.37271674634144" height="222.12561604599443" fill="black" x="250.81364162682928" y="88.93719197700278" id="transform-me" transform="matrix(1,0,0,1,-122.24000000000001,-76.4)"></rect></mask><mask id="a7c8dd6f-e7e7-4a84-ae3b-0067a949e717"><rect width="640" height="400" fill="white"></rect><rect width="138.37271674634144" height="222.12561604599443" fill="black" x="250.81364162682928" y="88.93719197700278" id="transform-me" transform="matrix(1,0,0,1,-122.24000000000001,-76.4)"></rect></mask><mask id="ff1a74fc-cc92-4dd1-9bd2-7578b2476ff4"><rect width="640" height="400" fill="white"></rect><rect width="138.37271674634144" height="222.12561604599443" fill="black" x="250.81364162682928" y="88.93719197700278" id="transform-me" transform="matrix(1,0,0,1,-122.24000000000001,-76.4)"></rect></mask><mask id="ee5644bf-15d0-4966-9ef7-ceddc6fb50b4"><rect width="640" height="400" fill="white"></rect><rect width="138.37271674634144" height="222.12561604599443" fill="black" x="250.81364162682928" y="88.93719197700278" id="transform-me" transform="matrix(1,0,0,1,-122.24000000000001,-76.4)"></rect></mask><mask id="ffac56bb-3c2d-48ad-b97b-a6943c8408a9"><rect width="640" height="400" fill="white"></rect><rect width="138.37271674634144" height="222.12561604599443" fill="black" x="250.81364162682928" y="88.93719197700278" id="transform-me" transform="matrix(1,0,0,1,-122.24000000000001,-76.4)"></rect></mask><mask id="5d9e75d8-f9ab-45b2-9231-2403555eca14"><rect width="640" height="400" fill="white"></rect><rect width="138.37271674634144" height="222.12561604599443" fill="black" x="250.81364162682928" y="88.93719197700278" id="transform-me" transform="matrix(1,0,0,1,-122.24000000000001,-76.4)"></rect></mask><mask id="0a5f7041-5595-4c32-b74a-d92ea801ba1b"><rect width="640" height="400" fill="white"></rect><rect width="138.37271674634144" height="222.12561604599443" fill="black" x="250.81364162682928" y="88.93719197700278" id="transform-me" transform="matrix(1,0,0,1,-122.24000000000001,-76.4)"></rect></mask><mask id="9ada4139-6a81-4fdd-9cac-2b9b58168d89"><rect width="640" height="400" fill="white"></rect><rect width="138.37271674634144" height="222.12561604599443" fill="black" x="250.81364162682928" y="88.93719197700278" id="transform-me" transform="matrix(1,0,0,1,-122.24000000000001,-76.4)"></rect></mask><mask id="5a76810d-1f79-4f10-b454-414dd6363f5a"><rect width="640" height="400" fill="white"></rect><rect width="138.37271674634144" height="222.12561604599443" fill="black" x="250.81364162682928" y="88.93719197700278" id="transform-me" transform="matrix(1,0,0,1,-122.24000000000001,-76.4)"></rect></mask><mask id="d2f13554-e65b-4769-b941-991b71114b67"><rect width="640" height="400" fill="white"></rect><rect width="138.37271674634144" height="222.12561604599443" fill="black" x="250.81364162682928" y="88.93719197700278" id="transform-me" transform="matrix(1,0,0,1,-122.24000000000001,-76.4)"></rect></mask><mask id="f67f7f81-8679-44b1-9f12-faec71298cef"><rect width="640" height="400" fill="white"></rect><rect width="138.37271674634144" height="222.12561604599443" fill="black" x="250.81364162682928" y="88.93719197700278" id="transform-me" transform="matrix(1,0,0,1,-122.24000000000001,-76.4)"></rect></mask><mask id="8dc1ae18-2c09-4b4d-8c06-f2e06d6b416f"><rect width="640" height="400" fill="white"></rect><rect width="138.37271674634144" height="222.12561604599443" fill="black" x="250.81364162682928" y="88.93719197700278" id="transform-me" transform="matrix(1,0,0,1,-122.24000000000001,-76.4)"></rect></mask><mask id="e4bec225-ce6b-4482-86f2-c7091e6f1404"><rect width="640" height="400" fill="white"></rect><rect width="138.37271674634144" height="222.12561604599443" fill="black" x="250.81364162682928" y="88.93719197700278" id="transform-me" transform="matrix(1,0,0,1,-122.24000000000001,-76.4)"></rect></mask><mask id="cd77fb30-85d0-4dae-a668-461b9b65e710"><rect width="640" height="400" fill="white"></rect><rect width="138.37271674634144" height="222.12561604599443" fill="black" x="250.81364162682928" y="88.93719197700278" id="transform-me" transform="matrix(1,0,0,1,-122.24000000000001,-76.4)"></rect></mask><mask id="5cf3d7df-2fd4-4b4e-87c3-0a6f3b1ff345"><rect width="640" height="400" fill="white"></rect><rect width="138.37271674634144" height="222.12561604599443" fill="black" x="250.81364162682928" y="88.93719197700278" id="transform-me" transform="matrix(1,0,0,1,-122.24000000000001,-76.4)"></rect></mask><mask id="07a52cd9-efd8-4363-b5ae-0f69c1ad4152"><rect width="640" height="400" fill="white"></rect><rect width="138.37271674634144" height="222.12561604599443" fill="black" x="250.81364162682928" y="88.93719197700278" id="transform-me" transform="matrix(1,0,0,1,-122.24000000000001,-76.4)"></rect></mask><mask id="5f5a13c1-6041-4456-bcab-35428390ba22"><rect width="640" height="400" fill="white"></rect><rect width="138.37271674634144" height="222.12561604599443" fill="black" x="250.81364162682928" y="88.93719197700278" id="transform-me" transform="matrix(1,0,0,1,-122.24000000000001,-76.4)"></rect></mask><mask id="412f571d-22c5-4230-bbc9-c041c1275b82"><rect width="640" height="400" fill="white"></rect><rect width="138.37271674634144" height="222.12561604599443" fill="black" x="250.81364162682928" y="88.93719197700278" id="transform-me" transform="matrix(1,0,0,1,-122.24000000000001,-76.4)"></rect></mask><mask id="0aa6690b-099f-4e47-88c7-a21c9fc8b955"><rect width="640" height="400" fill="white"></rect><rect width="138.37271674634144" height="222.12561604599443" fill="black" x="250.81364162682928" y="88.93719197700278" id="transform-me" transform="matrix(1,0,0,1,-122.24000000000001,-76.4)"></rect></mask><mask id="947346e0-7eb0-46d9-9806-4b54ed7b53bc"><rect width="640" height="400" fill="white"></rect><rect width="138.37271674634144" height="222.12561604599443" fill="black" x="250.81364162682928" y="88.93719197700278" id="transform-me" transform="matrix(1,0,0,1,-122.24000000000001,-76.4)"></rect></mask><mask id="9797a825-720b-4983-9c54-ac856cc27bea"><rect width="640" height="400" fill="white"></rect><rect width="138.37271674634144" height="222.12561604599443" fill="black" x="250.81364162682928" y="88.93719197700278" id="transform-me" transform="matrix(1,0,0,1,-122.24000000000001,-76.4)"></rect></mask><mask id="8abf2979-414b-4063-8d04-4d415d72254f"><rect width="640" height="400" fill="white"></rect><rect width="138.37271674634144" height="222.12561604599443" fill="black" x="250.81364162682928" y="88.93719197700278" id="transform-me" transform="matrix(1,0,0,1,-122.24000000000001,-76.4)"></rect></mask><mask id="a0653a00-8d36-4f2c-8a21-bab8b2ddb635"><rect width="640" height="400" fill="white"></rect><rect width="138.37271674634144" height="222.12561604599443" fill="black" x="250.81364162682928" y="88.93719197700278" id="transform-me" transform="matrix(1,0,0,1,-122.24000000000001,-76.4)"></rect></mask><mask id="2e261a32-1b74-4968-95cd-aca9a35f6fd6"><rect width="640" height="400" fill="white"></rect><rect width="138.37271674634144" height="222.12561604599443" fill="black" x="250.81364162682928" y="88.93719197700278" id="transform-me" transform="matrix(1,0,0,1,-122.24000000000001,-76.4)"></rect></mask><mask id="049ec505-e8e2-4c93-a9e9-187b74a87fd2"><rect width="640" height="400" fill="white"></rect><rect width="138.37271674634144" height="222.12561604599443" fill="black" x="250.81364162682928" y="88.93719197700278" id="transform-me" transform="matrix(1,0,0,1,-122.24000000000001,-76.4)"></rect></mask><mask id="5ee4fa42-4388-4f5d-8a65-9312af79f28a"><rect width="640" height="400" fill="white"></rect><rect width="138.37271674634144" height="222.12561604599443" fill="black" x="250.81364162682928" y="88.93719197700278" id="transform-me" transform="matrix(1,0,0,1,-122.24000000000001,-76.4)"></rect></mask><mask id="a3723b32-37d9-4cd2-abbd-b8ea6ffdf0cf"><rect width="640" height="400" fill="white"></rect><rect width="162.10748677385376" height="219.20765348270055" fill="black" x="238.9462566130731" y="90.39617325864972" id="transform-me" transform="matrix(1,0,0,1,-122.24000000000001,-76.4)"></rect></mask><mask id="1e25413c-cffb-4c7e-9f46-4daf94188421"><rect width="640" height="400" fill="white"></rect><rect width="162.10748677385376" height="219.20765348270055" fill="black" x="238.9462566130731" y="90.39617325864972" id="transform-me" transform="matrix(1,0,0,1,-122.24000000000001,-76.4)"></rect></mask><mask id="dfd95b5a-7b84-40f6-b190-fe851536911d"><rect width="640" height="400" fill="white"></rect><rect width="162.10748677385376" height="219.20765348270055" fill="black" x="238.9462566130731" y="90.39617325864972" id="transform-me" transform="matrix(1,0,0,1,-122.24000000000001,-76.4)"></rect></mask><mask id="fac9fd29-e1a3-40aa-b1e0-fd27134bdd5b"><rect width="640" height="400" fill="white"></rect><rect width="162.10748677385376" height="219.20765348270055" fill="black" x="238.9462566130731" y="90.39617325864972" id="transform-me" transform="matrix(1,0,0,1,-122.24000000000001,-76.4)"></rect></mask><mask id="412ad5fe-4a2c-44b6-81b9-67c53edae916"><rect width="640" height="400" fill="white"></rect><rect width="162.10748677385376" height="219.20765348270055" fill="black" x="238.9462566130731" y="90.39617325864972" id="transform-me" transform="matrix(1,0,0,1,-122.24000000000001,-76.4)"></rect></mask><mask id="7ff0f582-5260-438a-9175-dccdb84ca14f"><rect width="640" height="400" fill="white"></rect><rect width="162.10748677385376" height="219.20765348270055" fill="black" x="238.9462566130731" y="90.39617325864972" id="transform-me" transform="matrix(1,0,0,1,-122.24000000000001,-76.4)"></rect></mask><mask id="87f5c53f-a16c-4afc-ac27-8555a64601a3"><rect width="640" height="400" fill="white"></rect><rect width="162.10748677385376" height="219.20765348270055" fill="black" x="238.9462566130731" y="90.39617325864972" id="transform-me" transform="matrix(1,0,0,1,-122.24000000000001,-76.4)"></rect></mask><mask id="820139a5-8729-4c93-8607-4657b341deb6"><rect width="640" height="400" fill="white"></rect><rect width="162.10748677385376" height="219.20765348270055" fill="black" x="238.9462566130731" y="90.39617325864972" id="transform-me" transform="matrix(1,0,0,1,-122.24000000000001,-76.4)"></rect></mask><mask id="2a0eb02a-9e5d-46a7-8542-4e4b975f2886"><rect width="640" height="400" fill="white"></rect><rect width="162.10748677385376" height="219.20765348270055" fill="black" x="238.9462566130731" y="90.39617325864972" id="transform-me" transform="matrix(1,0,0,1,-122.24000000000001,-76.4)"></rect></mask><mask id="260d5a0c-f32d-4c02-abe1-1167e8ba59b0"><rect width="640" height="400" fill="white"></rect><rect width="162.10748677385376" height="219.20765348270055" fill="black" x="238.9462566130731" y="90.39617325864972" id="transform-me" transform="matrix(1,0,0,1,-122.24000000000001,-76.4)"></rect></mask><mask id="03bf62f5-7ab9-45fa-a719-816a11ddab6d"><rect width="640" height="400" fill="white"></rect><rect width="162.10748677385376" height="219.20765348270055" fill="black" x="238.9462566130731" y="90.39617325864972" id="transform-me" transform="matrix(1,0,0,1,-122.24000000000001,-76.4)"></rect></mask><mask id="d0f16311-321f-4b48-8ad2-c974be82b30a"><rect width="640" height="400" fill="white"></rect><rect width="162.10748677385376" height="219.20765348270055" fill="black" x="238.9462566130731" y="90.39617325864972" id="transform-me" transform="matrix(1,0,0,1,-122.24000000000001,-76.4)"></rect></mask><mask id="acf2c0cf-287e-4dd4-81f3-4aa515836097"><rect width="640" height="400" fill="white"></rect><rect width="162.10748677385376" height="219.20765348270055" fill="black" x="238.9462566130731" y="90.39617325864972" id="transform-me" transform="matrix(1,0,0,1,-122.24000000000001,-76.4)"></rect></mask><mask id="881d199f-0865-4eab-9365-06758c7c5eca"><rect width="640" height="400" fill="white"></rect><rect width="162.10748677385376" height="219.20765348270055" fill="black" x="238.9462566130731" y="90.39617325864972" id="transform-me" transform="matrix(1,0,0,1,-122.24000000000001,-76.4)"></rect></mask><mask id="39fa0145-a0ad-40fb-bef1-381bb25f5fb4"><rect width="640" height="400" fill="white"></rect><rect width="162.10748677385376" height="219.20765348270055" fill="black" x="238.9462566130731" y="90.39617325864972" id="transform-me" transform="matrix(1,0,0,1,-122.24000000000001,-76.4)"></rect></mask><mask id="7bd89bc3-32c4-4de8-8c0a-0d9e44391a0f"><rect width="640" height="400" fill="white"></rect><rect width="162.10748677385376" height="219.20765348270055" fill="black" x="238.9462566130731" y="90.39617325864972" id="transform-me" transform="matrix(1,0,0,1,-122.24000000000001,-76.4)"></rect></mask><mask id="086bcd4b-ccfc-4578-be4b-958abdff4f64"><rect width="640" height="400" fill="white"></rect><rect width="162.10748677385376" height="219.20765348270055" fill="black" x="238.9462566130731" y="90.39617325864972" id="transform-me" transform="matrix(1,0,0,1,-122.24000000000001,-76.4)"></rect></mask><mask id="9eacbb76-5df1-4073-b2a4-a3e238716a7e"><rect width="640" height="400" fill="white"></rect><rect width="162.10748677385376" height="219.20765348270055" fill="black" x="238.9462566130731" y="90.39617325864972" id="transform-me" transform="matrix(1,0,0,1,-122.24000000000001,-76.4)"></rect></mask><mask id="55423351-67b3-4bd5-baf0-c77d6cd31268"><rect width="640" height="400" fill="white"></rect><rect width="162.10748677385376" height="219.20765348270055" fill="black" x="238.9462566130731" y="90.39617325864972" id="transform-me" transform="matrix(1,0,0,1,-122.24000000000001,-76.4)"></rect></mask><mask id="88dd2bf6-4083-456a-9a32-a149ffce8701"><rect width="640" height="400" fill="white"></rect><rect width="162.10748677385376" height="219.20765348270055" fill="black" x="238.9462566130731" y="90.39617325864972" id="transform-me" transform="matrix(1,0,0,1,-122.24000000000001,-76.4)"></rect></mask><mask id="5194ff67-5f1a-4177-9f25-83c154318047"><rect width="640" height="400" fill="white"></rect><rect width="162.10748677385376" height="219.20765348270055" fill="black" x="238.9462566130731" y="90.39617325864972" id="transform-me" transform="matrix(1,0,0,1,-122.24000000000001,-76.4)"></rect></mask><mask id="d1be52e7-2c0b-46fe-a234-a3ec20a0ee32"><rect width="640" height="400" fill="white"></rect><rect width="162.10748677385376" height="219.20765348270055" fill="black" x="238.9462566130731" y="90.39617325864972" id="transform-me" transform="matrix(1,0,0,1,-122.24000000000001,-76.4)"></rect></mask><mask id="fe980ad6-ab7d-4439-bb6a-643d98fcab09"><rect width="640" height="400" fill="white"></rect><rect width="162.10748677385376" height="219.20765348270055" fill="black" x="238.9462566130731" y="90.39617325864972" id="transform-me" transform="matrix(1,0,0,1,-122.24000000000001,-76.4)"></rect></mask><mask id="d49a8572-ec4d-4e4d-9979-4af4cce5289d"><rect width="640" height="400" fill="white"></rect><rect width="162.10748677385376" height="219.20765348270055" fill="black" x="238.9462566130731" y="90.39617325864972" id="transform-me" transform="matrix(1,0,0,1,-122.24000000000001,-76.4)"></rect></mask><mask id="819f8602-36c7-4846-b598-dd5e4a7b48fd"><rect width="640" height="400" fill="white"></rect><rect width="162.10748677385376" height="219.20765348270055" fill="black" x="238.9462566130731" y="90.39617325864972" id="transform-me" transform="matrix(1,0,0,1,-122.24000000000001,-76.4)"></rect></mask><mask id="257ea165-7391-42c4-88a0-726cc236449a"><rect width="640" height="400" fill="white"></rect><rect width="162.10748677385376" height="219.20765348270055" fill="black" x="238.9462566130731" y="90.39617325864972" id="transform-me" transform="matrix(1,0,0,1,-122.24000000000001,-76.4)"></rect></mask><mask id="154b7557-448a-4976-97be-d7f50091860a"><rect width="640" height="400" fill="white"></rect><rect width="162.10748677385376" height="219.20765348270055" fill="black" x="238.9462566130731" y="90.39617325864972" id="transform-me" transform="matrix(1,0,0,1,-122.24000000000001,-76.4)"></rect></mask><mask id="35e5de34-3f73-4a6f-9b4f-eb72c6994e14"><rect width="640" height="400" fill="white"></rect><rect width="162.10748677385376" height="219.20765348270055" fill="black" x="238.9462566130731" y="90.39617325864972" id="transform-me" transform="matrix(1,0,0,1,-122.24000000000001,-76.4)"></rect></mask><mask id="e24b2f58-fab7-4520-b733-ac3faa722656"><rect width="640" height="400" fill="white"></rect><rect width="162.10748677385376" height="219.20765348270055" fill="black" x="238.9462566130731" y="90.39617325864972" id="transform-me" transform="matrix(1,0,0,1,-122.24000000000001,-76.4)"></rect></mask><mask id="3159f2a9-6cae-469e-ba60-6f4769618e3f"><rect width="640" height="400" fill="white"></rect><rect width="216.14331569847164" height="292.2768713102674" fill="black" x="211.9283421507642" y="53.86156434486631" id="transform-me" transform="matrix(1,0,0,1,-122.24000000000001,-76.4)"></rect></mask><mask id="9693b8c6-a0b7-4572-92c2-f718a8f0a9bb"><rect width="640" height="400" fill="white"></rect><rect width="108.07165784923582" height="146.1384356551337" fill="black" x="265.96417107538207" y="126.93078217243315" id="transform-me" transform="matrix(1,0,0,1,-122.24000000000001,-76.4)"></rect></mask><mask id="0be5eca8-69e0-4b1e-a9ae-ea84f34160e6"><rect width="640" height="400" fill="white"></rect><rect width="162.10748677385376" height="219.20765348270055" fill="black" x="238.9462566130731" y="90.39617325864972" id="transform-me" transform="matrix(1,0,0,1,-122.24000000000001,-76.4)"></rect></mask><mask id="c2fcc069-7222-41c0-b861-5b87fe376656"><rect width="640" height="400" fill="white"></rect><rect width="108.07165784923582" height="146.1384356551337" fill="black" x="265.96417107538207" y="126.93078217243315" id="transform-me" transform="matrix(1,0,0,1,-122.24000000000001,-76.4)"></rect></mask></defs></svg><rect width="395.52" height="247.2" fill="none" stroke="none" visibility="hidden"></rect></g></svg></g></svg>