<?xml version="1.0" standalone="yes"?>
<svg xmlns="http://www.w3.org/2000/svg" width="500" height="500">
<path style="fill:#010101; stroke:none;" d="M0 0L0 500L500 500L500 0L0 0z"/>
<path style="fill:#eddebc; stroke:none;" d="M175 123L179 121L175 123z"/>
<path style="fill:#2f4a6d; stroke:none;" d="M179.044 120.746C170.248 124.194 165.398 147.679 162.319 156C149.417 190.86 135.072 225.185 122.05 260C119.133 267.798 113.978 276.661 113.201 285C112.639 291.025 116.819 295.303 122.957 293.566C131.902 291.033 136.672 266.955 139.797 259C153.908 223.082 167.855 187.069 181.576 151C184.149 144.236 189.561 135.306 189.601 128.001C189.631 122.493 184.217 118.719 179.044 120.746z"/>
<path style="fill:#eddebc; stroke:none;" d="M185 120L186 121L185 120M187 121L188 122L187 121M174 124L175 125L174 124M189.333 124.667L189.667 125.333L189.333 124.667z"/>
<path style="fill:#0aec71; stroke:none;" d="M180.374 126.086C173.155 130.16 169.11 151.46 166.189 159C154.185 189.99 142.541 221.144 130.2 252C126.353 261.618 122.672 271.312 119.005 281C118.186 283.164 116.122 289.807 120.926 289.079C124.381 288.555 125.545 282.658 126.601 280C130.296 270.699 133.866 261.354 137.424 252C149.619 219.942 161.871 187.849 174.6 156C177.756 148.104 181.21 140.114 183.763 132.001C184.518 129.601 184.737 123.625 180.374 126.086z"/>
<path style="fill:#eddebc; stroke:none;" d="M173 126L174 127L173 126z"/>
<path style="fill:#fdb41b; stroke:none;" d="M173 127L174 128L173 127z"/>
<path style="fill:#eddebc; stroke:none;" d="M172 129L173 130L172 129M189 130L190 131L189 130M171.333 131.667L171.667 132.333L171.333 131.667z"/>
<path style="fill:#fdb41b; stroke:none;" d="M188 132L189 133L188 132z"/>
<path style="fill:#eddebc; stroke:none;" d="M188 133L189 134L188 133M170 134L171 135L170 134M187.333 135.667L187.667 136.333L187.333 135.667M169.333 136.667L169.667 137.333L169.333 136.667M186 138L187 139L186 138M168 139L169 140L168 139M185.333 140.667L185.667 141.333L185.333 140.667M167.333 141.667L167.667 142.333L167.333 141.667M184 143L185 144L184 143M166.333 144.667L166.667 145.333L166.333 144.667M183.333 145.667L183.667 146.333L183.333 145.667M165 147L166 148L165 147M182.333 148.667L182.667 149.333L182.333 148.667M108 149L108 150L113 150L108 149M164.333 149.667L164.667 150.333L164.333 149.667M191 149L191 150L196 150L191 149M106 150L107 151L106 150z"/>
<path style="fill:#2f4a6d; stroke:none;" d="M107 150.728C100.496 153.009 94.3363 159.549 89 163.801C77.3802 173.059 65.6033 182.121 54 191.4C48.5886 195.727 38.8302 200.758 40.233 208.961C41.3256 215.349 50.2845 220 55 223.65C68.4233 234.041 81.7447 244.596 95 255.2C99.8221 259.057 106.956 266.999 113.811 263.413C123.376 258.409 113.903 249.159 109 245.35C97.275 236.24 85.6659 226.975 74 217.789C71.1858 215.574 63.0556 211.103 63.0556 207.05C63.0556 202.633 72.911 197.446 76 194.997C88.3939 185.169 102.783 176.086 113.891 164.829C119.986 158.653 117.009 147.219 107 150.728z"/>
<path style="fill:#eddebc; stroke:none;" d="M114 150L115 151L114 150M189 150L190 151L189 150z"/>
<path style="fill:#2f4a6d; stroke:none;" d="M243 206L243 208C225.721 216.821 210.37 233.025 195 244.881C190.067 248.686 180.951 256.09 188.279 262.482C194.761 268.136 203.101 259.399 208 255.576C221.053 245.39 234.051 235.118 247 224.801C251.976 220.836 259.83 216.752 262.82 210.961C266.688 203.47 257.913 198.132 253 194.2C238.098 182.274 222.996 170.596 208 158.789C203.123 154.95 195.078 146.35 188.395 151.742C180.799 157.871 190.301 165.64 195 169.4C209.641 181.115 225.882 198.373 243 206z"/>
<path style="fill:#eddebc; stroke:none;" d="M197 150L198 151L197 150M104 151L105 152L104 151M115 151L116 152L115 151M181 151L182 152L181 151M187 151L188 152L187 151M198 151L199 152L198 151M103 152L104 153L103 152M116 152L117 153L116 152M163 152L164 153L163 152M186 152L187 153L186 152M200 152L201 153L200 152M102 153L103 154L102 153M117 153L118 154L117 153M180.333 153.667L180.667 154.333L180.333 153.667z"/>
<path style="fill:#fdb41b; stroke:none;" d="M186 153L187 154L186 153z"/>
<path style="fill:#eddebc; stroke:none;" d="M201 153L202 154L201 153M100 154L101 155L100 154z"/>
<path style="fill:#0aec71; stroke:none;" d="M53 206C70.2165 198.327 86.0753 180.902 101 169.35C103.055 167.759 117.014 158.655 111.392 155.312C107.27 152.861 97.9625 162.654 95 165.003C82.6901 174.764 70.2674 184.386 58 194.2C54.3895 197.088 46.1235 201.431 44.8904 206.159C43.6129 211.058 52.8435 216.112 56 218.576C69.0325 228.746 82.0118 238.984 95 249.211C97.8786 251.477 107.291 261.572 111.377 258.863C116.705 255.332 102.137 245.902 100 244.199C85.2195 232.423 64.4858 220.974 53 206z"/>
<path style="fill:#fdb41b; stroke:none;" d="M117 154L118 155L117 154z"/>
<path style="fill:#eddebc; stroke:none;" d="M162.333 154.667L162.667 155.333L162.333 154.667M185.333 154.667L185.667 155.333L185.333 154.667z"/>
<path style="fill:#0aec71; stroke:none;" d="M251 208C233.788 215.286 217.74 233.073 203 244.576C200.909 246.207 186.113 255.7 192.337 258.828C196.649 260.995 204.979 252.012 208 249.6C221.254 239.018 234.563 228.467 248 218.119C251.38 215.516 260.373 210.52 257.914 205.171C255.682 200.316 248.091 196.247 244 193.003C232.036 183.517 220.074 173.996 208 164.65C205.635 162.82 193.78 151.203 191.176 156.361C188.792 161.082 201.051 168.274 204 170.576C219.679 182.811 236.368 194.532 251 208z"/>
<path style="fill:#eddebc; stroke:none;" d="M202 154L203 155L202 154M99 155L100 156L99 155M203 155L204 156L203 155M98 156L99 157L98 156M118.333 156.667L118.667 157.333L118.333 156.667M179 156L180 157L179 156M205 156L206 157L205 156z"/>
<path style="fill:#fdb41b; stroke:none;" d="M97 157L98 158L97 157z"/>
<path style="fill:#eddebc; stroke:none;" d="M161 157L162 158L161 157M206 157L207 158L206 157M95 158L96 159L95 158z"/>
<path style="fill:#fdb41b; stroke:none;" d="M161 158L162 159L161 158z"/>
<path style="fill:#eddebc; stroke:none;" d="M178.333 158.667L178.667 159.333L178.333 158.667z"/>
<path style="fill:#fdb41b; stroke:none;" d="M185 158L186 159L185 158z"/>
<path style="fill:#eddebc; stroke:none;" d="M207 158L208 159L207 158M284 158L285 159L284 158M381 158L382 159L381 158M408 158L409 159L408 158M414 158L414 159L426 159L414 158M432 158L433 159L432 158M94 159L95 160L94 159M185.333 159.667L185.667 160.333L185.333 159.667z"/>
<path style="fill:#fdb41b; stroke:none;" d="M208 159L209 160L208 159z"/>
<path style="fill:#eddebc; stroke:none;" d="M282 159L282 260L283 260L283 190L282 159z"/>
<path style="fill:#fdb41b; stroke:none;" d="M283 159L283 260L298 260L298 184C305.277 192.531 311.762 201.884 318.29 211C320.9 214.644 323.836 220.606 328.174 222.397C331.843 223.912 337.719 223.329 340.675 220.682C350.327 212.037 361.239 195.567 367 184L368 184L368 260L383 260L383 159L368.3 160.028L357.151 174L334 207L332 207L309 174L297.7 160.028L283 159z"/>
<path style="fill:#eddebc; stroke:none;" d="M298 159L299 160L298 159M367 159L368 160L367 159M383 159L383 260L374 260C374.221 266.734 385.846 271.477 389.411 264.682C393.213 257.438 390 245.833 390 238L390 189C390 180.982 391.281 171.717 389 164L384 165L383 159M404 159L404 172C408.486 172.347 409.653 173.818 411 178L412 178L412 171L405 171L404 159z"/>
<path style="fill:#fdb41b; stroke:none;" d="M405 159L405 171L412 171L412 248L405 248L405 260L434 260L434 248L427 248L427 171L434 171L434 159L405 159z"/>
<path style="fill:#eddebc; stroke:none;" d="M434 159L434 171L427 171L427 248L434 248L434 260L410 260C410.334 270.164 422.399 267 430 267C432.96 267 437.84 267.864 440.062 265.397C444.711 260.233 441.775 252.469 435 253C434.608 234.028 434 215.042 434 196C434 188.847 431.565 178.72 441 178C441.004 172.587 443.406 162.886 435 165L434 159M93 160L94 161L93 160z"/>
<path style="fill:#fdb41b; stroke:none;" d="M117 160L118 161L117 160z"/>
<path style="fill:#eddebc; stroke:none;" d="M160 160L161 161L160 160M210 160L211 161L210 160M299.333 160.667L299.667 161.333L299.333 160.667M366.333 160.667L366.667 161.333L366.333 160.667M117 161L118 162L117 161M177 161L178 162L177 161z"/>
<path style="fill:#fdb41b; stroke:none;" d="M186 161L187 162L186 161z"/>
<path style="fill:#eddebc; stroke:none;" d="M211 161L212 162L211 161M90 162L91 163L90 162M116 162L117 163L116 162M159.333 162.667L159.667 163.333L159.333 162.667M186 162L187 163L186 162M212 162L213 163L212 162M300 162L301 163L300 162M365 162L366 163L365 162M89 163L90 164L89 163M115 163L116 164L115 163z"/>
<path style="fill:#fdb41b; stroke:none;" d="M176 163L177 164L176 163z"/>
<path style="fill:#eddebc; stroke:none;" d="M187 163L188 164L187 163M214 163L215 164L214 163M301 163L302 164L301 163M364 163L365 164L364 163M88 164L89 165L88 164M114 164L115 165L114 164M176 164L177 165L176 164M188 164L189 165L188 164M215 164L216 165L215 164M363.333 164.667L363.667 165.333L363.333 164.667M86 165L87 166L86 165M113 165L114 166L113 165M158 165L159 166L158 165M190 165L191 166L190 165M216 165L217 166L216 165M302 165C308.7 175.759 316.909 185.693 324.29 196C327.037 199.835 329.866 206.088 335 206L313.71 177L302 165M85 166L86 167L85 166M112 166L113 167L112 166M175.333 166.667L175.667 167.333L175.333 166.667M191 166L192 167L191 166M217 166L218 167L217 166M362 166L363 167L362 166M84 167L85 168L84 167M110 167L111 168L110 167M157.333 167.667L157.667 168.333L157.333 167.667M192 167L193 168L192 167M219 167L220 168L219 167M361.333 167.667L361.667 168.333L361.333 167.667M83 168L84 169L83 168M109 168L110 169L109 168M193 168L194 169L193 168M220 168L221 169L220 168M81 169L82 170L81 169M108 169L109 170L108 169M174 169L175 170L174 169M195 169L196 170L195 169M221 169L222 170L221 169M360 169L361 170L360 169M80 170L81 171L80 170M156 170L157 171L156 170M196 170L197 171L196 170M222 170L223 171L222 170M359 170L360 171L359 170M79 171L80 172L79 171M105 171L106 172L105 171z"/>
<path style="fill:#fdb41b; stroke:none;" d="M156 171L157 172L156 171z"/>
<path style="fill:#eddebc; stroke:none;" d="M173.333 171.667L173.667 172.333L173.333 171.667M197 171L198 172L197 171M224 171L225 172L224 171M358.333 171.667L358.667 172.333L358.333 171.667M104 172L105 173L104 172M225 172L226 173L225 172M76 173L77 174L76 173M103 173L104 174L103 173M155 173L156 174L155 173M200 173L201 174L200 173M226 173L227 174L226 173M357 173L358 174L357 173M75 174L76 175L75 174z"/>
<path style="fill:#fdb41b; stroke:none;" d="M101 174L102 175L101 174z"/>
<path style="fill:#eddebc; stroke:none;" d="M172 174L173 175L172 174M201 174L202 175L201 174M356 174L357 175L356 174M74 175L75 176L74 175M100 175L101 176L100 175M154.333 175.667L154.667 176.333L154.333 175.667M202 175L203 176L202 175M229 175L230 176L229 175M72 176L73 177L72 176M99 176L100 177L99 176M171.333 176.667L171.667 177.333L171.333 176.667z"/>
<path style="fill:#fdb41b; stroke:none;" d="M204 176L205 177L204 176z"/>
<path style="fill:#eddebc; stroke:none;" d="M230 176L231 177L230 176M355 176L356 177L355 176M71 177L72 178L71 177M98 177L99 178L98 177M205 177L206 178L205 177M231 177L232 178L231 177M354 177L355 178L354 177M70 178L71 179L70 178M96 178L97 179L96 178M153 178L154 179L153 178M206 178L207 179L206 178M233 178L234 179L233 178M353.333 178.667L353.667 179.333L353.333 178.667M69 179L70 180L69 179M95 179L96 180L95 179M170.333 179.667L170.667 180.333L170.333 179.667M207 179L208 180L207 179M234 179L235 180L234 179M67 180L68 181L67 180M94 180L95 181L94 180M152.333 180.667L152.667 181.333L152.333 180.667M209 180L210 181L209 180M235 180L236 181L235 180M352 180L353 181L352 180M66 181L67 182L66 181M93 181L94 182L93 181M210 181L211 182L210 181M236 181L237 182L236 181M351 181L352 182L351 181M65 182L66 183L65 182M91 182L92 183L91 182M169 182L170 183L169 182M211 182L212 183L211 182M238 182L239 183L238 182M350.333 182.667L350.667 183.333L350.333 182.667z"/>
<path style="fill:#fdb41b; stroke:none;" d="M64 183L65 184L64 183z"/>
<path style="fill:#eddebc; stroke:none;" d="M90 183L91 184L90 183M151 183L152 184L151 183M212 183L213 184L212 183M239 183L240 184L239 183M62 184L63 185L62 184M89 184L90 185L89 184M168.333 184.667L168.667 185.333L168.333 184.667M214 184L215 185L214 184M240 184L241 185L240 184M298 184L298 260L289 260L289 267C293.006 267 301.157 268.552 303.856 264.852C307.21 260.255 304.008 250.292 304 245C303.974 228.686 311.862 195.459 298 184M349 184L350 185L349 184M367 184C356.734 198.291 346.077 223 327 223L327 224C332.767 227.129 335.439 231.599 342.996 229.682C348.352 228.323 351.423 222.156 354.424 218C361.529 208.161 372.551 197.229 367 184M61 185L62 186L61 185M150.333 185.667L150.667 186.333L150.333 185.667M215 185L216 186L215 185z"/>
<path style="fill:#fdb41b; stroke:none;" d="M241 185L242 186L241 185z"/>
<path style="fill:#eddebc; stroke:none;" d="M348 185L349 186L348 185M60 186L61 187L60 186M86 186L87 187L86 186M216 186L217 187L216 186M243 186L244 187L243 186M85 187L86 188L85 187M167 187L168 188L167 187M244 187L245 188L244 187M347 187L348 188L347 187M57 188L58 189L57 188M84 188L85 189L84 188M149.333 188.667L149.667 189.333L149.333 188.667M219 188L220 189L219 188M245 188L246 189L245 188M346 188L347 189L346 188M56 189L57 190L56 189z"/>
<path style="fill:#fdb41b; stroke:none;" d="M82 189L83 190L82 189z"/>
<path style="fill:#eddebc; stroke:none;" d="M166.333 189.667L166.667 190.333L166.333 189.667M220 189L221 190L220 189M345.333 189.667L345.667 190.333L345.333 189.667M55 190L56 191L55 190M81 190L82 191L81 190M221 190L222 191L221 190M248 190L249 191L248 190M53 191L54 192L53 191M80 191L81 192L80 191M148 191L149 192L148 191z"/>
<path style="fill:#fdb41b; stroke:none;" d="M223 191L224 192L223 191z"/>
<path style="fill:#eddebc; stroke:none;" d="M249 191L250 192L249 191M344 191L345 192L344 191M52 192L53 193L52 192M79 192L80 193L79 192M165.333 192.667L165.667 193.333L165.333 192.667M224 192L225 193L224 192M250 192L251 193L250 192M343 192L344 193L343 192M51 193L52 194L51 193M77 193L78 194L77 193M147.333 193.667L147.667 194.333L147.333 193.667M225 193L226 194L225 193M252 193L253 194L252 193M305 193L306 194L305 193M342.333 193.667L342.667 194.333L342.333 193.667M50 194L51 195L50 194M76 194L77 195L76 194M226 194L227 195L226 194M253 194L254 195L253 194M306.333 194.667L306.667 195.333L306.333 194.667M48 195L49 196L48 195M75 195L76 196L75 195M164 195L165 196L164 195M228 195L229 196L228 195M254 195L255 196L254 195M341 195L342 196L341 195M47 196L48 197L47 196M74 196L75 197L74 196M146 196L147 197L146 196M229 196L230 197L229 196M255 196L256 197L255 196M307 196L308 197L307 196M340.333 196.667L340.667 197.333L340.333 196.667M46 197L47 198L46 197M72 197L73 198L72 197M163.333 197.667L163.667 198.333L163.333 197.667M230 197L231 198L230 197M257 197L258 198L257 197M308 197L309 198L308 197z"/>
<path style="fill:#fdb41b; stroke:none;" d="M45 198L46 199L45 198z"/>
<path style="fill:#eddebc; stroke:none;" d="M71 198L72 199L71 198M145.333 198.667L145.667 199.333L145.333 198.667M231 198L232 199L231 198M258 198L259 199L258 198M309.333 198.667L309.667 199.333L309.333 198.667M339 198L340 199L339 198M43 199L44 200L43 199M70 199L71 200L70 199M233 199L234 200L233 199M259 199L260 200L259 199M338 199L339 200L338 199M42 200L43 201L42 200z"/>
<path style="fill:#fdb41b; stroke:none;" d="M68 200L69 201L68 200z"/>
<path style="fill:#eddebc; stroke:none;" d="M162 200L163 201L162 200M234 200L235 201L234 200z"/>
<path style="fill:#fdb41b; stroke:none;" d="M260 200L261 201L260 200z"/>
<path style="fill:#eddebc; stroke:none;" d="M310 200L311 201L310 200M337.333 200.667L337.667 201.333L337.333 200.667M41 201L42 202L41 201M67 201L68 202L67 201M144 201L145 202L144 201M235 201L236 202L235 201M311.333 201.667L311.667 202.333L311.333 201.667M40 202L41 203L40 202M66 202L67 203L66 202z"/>
<path style="fill:#fdb41b; stroke:none;" d="M144 202L145 203L144 202z"/>
<path style="fill:#eddebc; stroke:none;" d="M161.333 202.667L161.667 203.333L161.333 202.667z"/>
<path style="fill:#fdb41b; stroke:none;" d="M237 202L238 203L237 202M262 202L263 203L262 202z"/>
<path style="fill:#eddebc; stroke:none;" d="M336 202L337 203L336 202M65 203L66 204L65 203M238 203L239 204L238 203M263 203L264 204L263 203M312 203L313 204L312 203M335 203L336 204L335 203M39 204L39 210L40 210L39 204M63 204L64 205L63 204M143 204L144 205L143 204M239 204L240 205L239 204M313 204L314 205L313 204M62 205L63 206L62 205M160 205L161 206L160 205M240 205L241 206L240 205M314.333 205.667L314.667 206.333L314.333 205.667M61 206L62 207L61 206M142.333 206.667L142.667 207.333L142.333 206.667M242.333 206.667L242.667 207.333L242.333 206.667z"/>
<path style="fill:#fdb41b; stroke:none;" d="M159 207L160 208L159 207z"/>
<path style="fill:#eddebc; stroke:none;" d="M315 207L316 208L315 207M367 207L367 212L368 212L367 207M62 208L63 209L62 208M159 208L160 209L159 208M241 208L242 209L241 208M316 208L317 209L316 208M63 209L64 210L63 209M141 209L142 210L141 209M239 209L240 210L239 209M317.333 209.667L317.667 210.333L317.333 209.667M64 210L65 211L64 210M158.333 210.667L158.667 211.333L158.333 210.667M238 210L239 211L238 210M263 210L264 211L263 210M40 211L41 212L40 211M66 211L67 212L66 211M140.333 211.667L140.667 212.333L140.333 211.667M237 211L238 212L237 211M318 211L319 212L318 211M67 212L68 213L67 212M236 212L237 213L236 212M262 212L263 213L262 212M319 212L320 213L319 212M42 213L43 214L42 213M68 213L69 214L68 213M157 213L158 214L157 213M234 213L235 214L234 213M261 213L262 214L261 213M43 214L44 215L43 214M69 214L70 215L69 214M139 214L140 215L139 214M233 214L234 215L233 214M260 214L261 215L260 214M320 214L321 215L320 214M44 215L45 216L44 215M71 215L72 216L71 215M156.333 215.667L156.667 216.333L156.333 215.667M232 215L233 216L232 215M258 215L259 216L258 215M321 215L322 216L321 215M45 216L46 217L45 216M72 216L73 217L72 216M138.333 216.667L138.667 217.333L138.333 216.667z"/>
<path style="fill:#fdb41b; stroke:none;" d="M231 216L232 217L231 216z"/>
<path style="fill:#eddebc; stroke:none;" d="M257 216L258 217L257 216M322.333 216.667L322.667 217.333L322.333 216.667M47 217L48 218L47 217M73 217L74 218L73 217M229 217L230 218L229 217M256 217L257 218L256 217M48 218L49 219L48 218z"/>
<path style="fill:#fdb41b; stroke:none;" d="M74 218L75 219L74 218z"/>
<path style="fill:#eddebc; stroke:none;" d="M155 218L156 219L155 218M228 218L229 219L228 218M323 218L324 219L323 218M49 219L50 220L49 219M76 219L77 220L76 219M137.333 219.667L137.667 220.333L137.333 219.667M227 219L228 220L227 219M253 219L254 220L253 219M324 219L325 220L324 219M77 220L78 221L77 220M154.333 220.667L154.667 221.333L154.333 220.667M252 220L253 221L252 220M325.333 220.667L325.667 221.333L325.333 220.667M52 221L53 222L52 221M78 221L79 222L78 221M224 221L225 222L224 221M251 221L252 222L251 221M53 222L54 223L53 222M136 222L137 223L136 222M223 222L224 223L223 222M249 222L250 223L249 222M326 222L327 223L326 222M54 223L55 224L54 223M81 223L82 224L81 223M153.333 223.667L153.667 224.333L153.333 223.667M222 223L223 224L222 223M248 223L249 224L248 223z"/>
<path style="fill:#fdb41b; stroke:none;" d="M56 224L57 225L56 224z"/>
<path style="fill:#eddebc; stroke:none;" d="M82 224L83 225L82 224M135.333 224.667L135.667 225.333L135.333 224.667M220 224L221 225L220 224M247 224L248 225L247 224M57 225L58 226L57 225M83 225L84 226L83 225M219 225L220 226L219 225M246 225L247 226L246 225M58 226L59 227L58 226M85 226L86 227L85 226M152 226L153 227L152 226M218 226L219 227L218 226M244 226L245 227L244 226M59 227L60 228L59 227M86 227L87 228L86 227M134 227L135 228L134 227M217 227L218 228L217 227M243 227L244 228L243 227M61 228L62 229L61 228M87 228L88 229L87 228M151.333 228.667L151.667 229.333L151.333 228.667M215 228L216 229L215 228M242 228L243 229L242 228M62 229L63 230L62 229M88 229L89 230L88 229M133.333 229.667L133.667 230.333L133.333 229.667M214 229L215 230L214 229M241 229L242 230L241 229M63 230L64 231L63 230M90 230L91 231L90 230M213 230L214 231L213 230M239 230L240 231L239 230M64 231L65 232L64 231M91 231L92 232L91 231M150 231L151 232L150 231z"/>
<path style="fill:#fdb41b; stroke:none;" d="M212 231L213 232L212 231z"/>
<path style="fill:#eddebc; stroke:none;" d="M238 231L239 232L238 231M66 232L67 233L66 232M92 232L93 233L92 232M132.333 232.667L132.667 233.333L132.333 232.667M210 232L211 233L210 232M237 232L238 233L237 232M67 233L68 234L67 233z"/>
<path style="fill:#fdb41b; stroke:none;" d="M93 233L94 234L93 233z"/>
<path style="fill:#eddebc; stroke:none;" d="M149.333 233.667L149.667 234.333L149.333 233.667M209 233L210 234L209 233z"/>
<path style="fill:#fdb41b; stroke:none;" d="M235 233L236 234L235 233z"/>
<path style="fill:#eddebc; stroke:none;" d="M68 234L69 235L68 234M95 234L96 235L95 234M208 234L209 235L208 234M234 234L235 235L234 234z"/>
<path style="fill:#fdb41b; stroke:none;" d="M70 235L71 236L70 235z"/>
<path style="fill:#eddebc; stroke:none;" d="M96 235L97 236L96 235M131 235L132 236L131 235M206 235L207 236L206 235M233 235L234 236L233 235M71 236L72 237L71 236M97 236L98 237L97 236M148.333 236.667L148.667 237.333L148.333 236.667M205 236L206 237L205 236M232 236L233 237L232 236M72 237L73 238L72 237M99 237L100 238L99 237M130.333 237.667L130.667 238.333L130.333 237.667M204 237L205 238L204 237M230 237L231 238L230 237M73 238L74 239L73 238M100 238L101 239L100 238M203 238L204 239L203 238M229 238L230 239L229 238M75 239L76 240L75 239M101 239L102 240L101 239M147 239L148 240L147 239M201 239L202 240L201 239M228 239L229 240L228 239M76 240L77 241L76 240M102 240L103 241L102 240M129 240L130 241L129 240M200 240L201 241L200 240M227 240L228 241L227 240M77 241L78 242L77 241M104 241L105 242L104 241M146.333 241.667L146.667 242.333L146.333 241.667M199 241L200 242L199 241M225 241L226 242L225 241M78 242L79 243L78 242M105 242L106 243L105 242M128.333 242.667L128.667 243.333L128.333 242.667z"/>
<path style="fill:#fdb41b; stroke:none;" d="M198 242L199 243L198 242z"/>
<path style="fill:#eddebc; stroke:none;" d="M224 242L225 243L224 242M80 243L81 244L80 243M106 243L107 244L106 243M196 243L197 244L196 243M223 243L224 244L223 243M81 244L82 245L81 244z"/>
<path style="fill:#fdb41b; stroke:none;" d="M107 244L108 245L107 244z"/>
<path style="fill:#eddebc; stroke:none;" d="M145 244L146 245L145 244M195 244L196 245L195 244M82 245L83 246L82 245M109 245L110 246L109 245M127 245L128 246L127 245M194 245L195 246L194 245M220 245L221 246L220 245M110 246L111 247L110 246z"/>
<path style="fill:#fdb41b; stroke:none;" d="M127 246L128 247L127 246z"/>
<path style="fill:#eddebc; stroke:none;" d="M144.333 246.667L144.667 247.333L144.333 246.667M219 246L220 247L219 246M85 247L86 248L85 247M111 247L112 248L111 247M191 247L192 248L191 247M218 247L219 248L218 247M404 247L404 260L405 260L405 248L412 248L404 247M86 248L87 249L86 248M126 248L127 249L126 248M190 248L191 249L190 248z"/>
<path style="fill:#fdb41b; stroke:none;" d="M216 248L217 249L216 248z"/>
<path style="fill:#eddebc; stroke:none;" d="M87 249L88 250L87 249M114 249L115 250L114 249M143 249L144 250L143 249M189 249L190 250L189 249M215 249L216 250L215 249z"/>
<path style="fill:#fdb41b; stroke:none;" d="M89 250L90 251L89 250z"/>
<path style="fill:#eddebc; stroke:none;" d="M115 250L116 251L115 250M125.333 250.667L125.667 251.333L125.333 250.667M214 250L215 251L214 250M90 251L91 252L90 251M116 251L117 252L116 251z"/>
<path style="fill:#fdb41b; stroke:none;" d="M142 251L143 252L142 251z"/>
<path style="fill:#eddebc; stroke:none;" d="M213 251L214 252L213 251M91 252L92 253L91 252M117.333 252.667L117.667 253.333L117.333 252.667M142 252L143 253L142 252M186 252L187 253L186 252M211 252L212 253L211 252M92 253L93 254L92 253M124 253L125 254L124 253M185 253L185 256L186 256L185 253M210 253L211 254L210 253M94 254L95 255L94 254M141.333 254.667L141.667 255.333L141.333 254.667M209 254L210 255L209 254M95 255L96 256L95 255M123.333 255.667L123.667 256.333L123.333 255.667M208 255L209 256L208 255M96 256L97 257L96 256M118.333 256.667L118.667 257.333L118.333 256.667M206 256L207 257L206 256M97 257L98 258L97 257M140 257L141 258L140 257M205 257L206 258L205 257M99 258L100 259L99 258M122 258L123 259L122 258M185.333 258.667L185.667 259.333L185.333 258.667M204 258L205 259L204 258M100 259L101 260L100 259M139.333 259.667L139.667 260.333L139.333 259.667z"/>
<path style="fill:#fdb41b; stroke:none;" d="M202 259L203 260L202 259z"/>
<path style="fill:#eddebc; stroke:none;" d="M101 260L102 261L101 260M117 260L118 261L117 260M121.333 260.667L121.667 261.333L121.333 260.667M201 260L202 261L201 260M369 260L370 261L369 260M371.667 260.333L372.333 260.667L371.667 260.333M405 260L406 261L405 260z"/>
<path style="fill:#fdb41b; stroke:none;" d="M116 261L117 262L116 261z"/>
<path style="fill:#eddebc; stroke:none;" d="M186 261L187 262L186 261M200 261L201 262L200 261M104 262L105 263L104 262M138 262L139 263L138 262M187 262L188 263L187 262M199 262L200 263L199 262M105 263L106 264L105 263M114 263L115 264L114 263M120.333 263.667L120.667 264.333L120.333 263.667M188 263L189 264L188 263M197 263L198 264L197 263M107.667 264.333L108.333 264.667L107.667 264.333M111.667 264.333L112.333 264.667L111.667 264.333M137.333 264.667L137.667 265.333L137.333 264.667M190.667 264.333L191.333 264.667L190.667 264.333z"/>
<path style="fill:#fdb41b; stroke:none;" d="M194 264L195 265L194 264z"/>
<path style="fill:#eddebc; stroke:none;" d="M195.667 264.333L196.333 264.667L195.667 264.333M119 266L120 267L119 266M136.333 267.667L136.667 268.333L136.333 267.667M118.333 268.667L118.667 269.333L118.333 268.667M135 270L136 271L135 270M117 271L118 272L117 271M134.333 272.667L134.667 273.333L134.333 272.667M116.333 273.667L116.667 274.333L116.333 273.667M133 275L134 276L133 275M115 276L116 277L115 276z"/>
<path style="fill:#fdb41b; stroke:none;" d="M115 277L116 278L115 277z"/>
<path style="fill:#eddebc; stroke:none;" d="M132.333 277.667L132.667 278.333L132.333 277.667M114 279L115 280L114 279M131 280L132 281L131 280M113.333 281.667L113.667 282.333L113.333 281.667M130 283L131 284L130 283M112 284L112 290L113 290L112 284M129.333 285.667L129.667 286.333L129.333 285.667M128 288L129 289L128 288M113 290L114 291L113 290M127 290L128 291L127 290M114 292L115 293L114 292M115 293L116 294L115 293M124 293L125 294L124 293M118 294L118 295L123 295L118 294M49 319L49 320L66 320L66 322L59 322L59 343L60 343L60 323L67 323L67 319L49 319M83 319L83 320L98 320L83 319M121 319L121 320L124 320L121 319z"/>
<path style="fill:#fdb41b; stroke:none;" d="M124.667 319.333L125.333 319.667L124.667 319.333z"/>
<path style="fill:#eddebc; stroke:none;" d="M126 319L126 320L129 320L126 319M151 319L151 320L154 320L151 319M166 319L166 320L169 320L166 319M188 319L188 320L193 321L188 319M203 319L203 320L206 320L203 319M231 319L231 320L234 320L231 319z"/>
<path style="fill:#fdb41b; stroke:none;" d="M234.667 319.333L235.333 319.667L234.667 319.333z"/>
<path style="fill:#eddebc; stroke:none;" d="M236 319L236 320L239 320L236 319M263 319L263 343L264 343C264 336.904 261.414 323.621 267 320L263 319M300 319L300 320L303 320L300 319z"/>
<path style="fill:#fdb41b; stroke:none;" d="M303.667 319.333L304.333 319.667L303.667 319.333z"/>
<path style="fill:#eddebc; stroke:none;" d="M305 319L305 320L308 320L305 319M339 319L339 320L342 320L339 319z"/>
<path style="fill:#fdb41b; stroke:none;" d="M342 319L343 320L342 319z"/>
<path style="fill:#eddebc; stroke:none;" d="M343 319L343 320L346 320L343 319M369 319L369 343L370 343C370 336.904 367.414 323.621 373 320L369 319M392 319L392 320L407 320L392 319M427 319L427 320L430 320L427 319z"/>
<path style="fill:#fdb41b; stroke:none;" d="M430 319L431 320L430 319z"/>
<path style="fill:#eddebc; stroke:none;" d="M431 319L431 320L435 320L431 319z"/>
<path style="fill:#2f4a6d; stroke:none;" d="M49 320L49 322L56 322L56 343L59 343L59 322L66 322L66 320L49 320z"/>
<path style="fill:#fdb41b; stroke:none;" d="M83 320L83 343L84 343L83 320z"/>
<path style="fill:#2f4a6d; stroke:none;" d="M84 320L84 343L98 343L98 341L86 341L86 332L96 332L96 330L86 330L86 322L98 322L98 320L84 320z"/>
<path style="fill:#eddebc; stroke:none;" d="M119 320L115 326L116 326L119 320z"/>
<path style="fill:#2f4a6d; stroke:none;" d="M133 336C130.557 337.363 127.969 340.339 124.997 340.249C117.136 340.011 115.775 327.758 121.228 323.746C125.029 320.95 129.217 323.658 133 325C126.474 312.061 111.111 325.242 115.742 336.985C118.802 344.744 132.574 345.365 133 336z"/>
<path style="fill:#eddebc; stroke:none;" d="M130 320L131 321L130 320z"/>
<path style="fill:#2f4a6d; stroke:none;" d="M151 320L151 343L154 343L154 332L166 332L166 343L169 343L169 320L166 320L166 329L154 329L154 320L151 320M188 320L188 343L191 343L191 324L192 324C194.037 330.394 199.28 340.933 206 343L206 320L203 320L203 337C199.107 331.23 195.416 321.199 188 320z"/>
<path style="fill:#eddebc; stroke:none;" d="M229 320L228 322L229 320z"/>
<path style="fill:#2f4a6d; stroke:none;" d="M230.105 320.858C218.577 326.042 226.659 348.908 239.956 341.821C251.276 335.788 243.331 314.91 230.105 320.858z"/>
<path style="fill:#eddebc; stroke:none;" d="M240 320L241 321L240 320z"/>
<path style="fill:#2f4a6d; stroke:none;" d="M264 320L264 343L278 343L278 341C263.452 340.998 266 332.042 266 320L264 320z"/>
<path style="fill:#fdb41b; stroke:none;" d="M266 320L266 340L267 340L266 320z"/>
<path style="fill:#eddebc; stroke:none;" d="M298 320L295 324L298 320z"/>
<path style="fill:#fdb41b; stroke:none;" d="M299 320L300 321L299 320z"/>
<path style="fill:#2f4a6d; stroke:none;" d="M300.015 320.742C287.624 325.624 295.198 348.296 308.895 342.142C320.631 336.869 313.62 315.382 300.015 320.742z"/>
<path style="fill:#eddebc; stroke:none;" d="M309 320L310 321L309 320M336 320L333 324L336 320z"/>
<path style="fill:#fdb41b; stroke:none;" d="M337 320L338 321L337 320z"/>
<path style="fill:#2f4a6d; stroke:none;" d="M347 341L348 341L351 343L351 331L342 331L342 333L348 333C345.465 355.554 323.432 320.498 343.002 322.407C345.398 322.641 347.784 324.134 350 325C347.998 318.661 338.655 318.389 334.514 323.228C327.21 331.763 335.939 348.555 347 341z"/>
<path style="fill:#eddebc; stroke:none;" d="M347.667 320.333L348.333 320.667L347.667 320.333z"/>
<path style="fill:#2f4a6d; stroke:none;" d="M370 320L370 343L372 343L372 320L370 320z"/>
<path style="fill:#fdb41b; stroke:none;" d="M372 320L372 343L373 343L372 320z"/>
<path style="fill:#2f4a6d; stroke:none;" d="M392 320L392 343L407 343L407 341L395 341L395 332L405 332L405 330L395 330L395 322L407 322L407 320L392 320z"/>
<path style="fill:#eddebc; stroke:none;" d="M425 320L423 324L424 324L425 320z"/>
<path style="fill:#2f4a6d; stroke:none;" d="M424 337C423.888 344.12 435.705 345.283 438.242 338.892C441.282 331.236 431.77 331.359 428.466 327.495C425.572 324.11 430.214 322.356 432.976 322.618C434.775 322.789 436.184 323.058 438 323C434.239 319.159 421.382 318.451 423.851 326.957C425.374 332.203 431.527 330.907 434.338 334.512C439.752 341.457 426.852 338.958 424 337z"/>
<path style="fill:#eddebc; stroke:none;" d="M436 320L437 321L436 320z"/>
<path style="fill:#fdb41b; stroke:none;" d="M131 321L132 322L131 321z"/>
<path style="fill:#eddebc; stroke:none;" d="M241 321L242 322L241 321M311 321L312 322L311 321M349 321L350 322L349 321M437 321L438 322L437 321M49 322L49 323L56 323L49 322M86 322L86 330L96 330L96 332L86 332L86 341L98 341L98 340L87 340L87 333L97 333L97 329L87 329L87 323L98 323L86 322M122 322L122 323L125 323L122 322M126.667 322.333L127.333 322.667L126.667 322.333z"/>
<path style="fill:#fdb41b; stroke:none;" d="M132 322L133 323L132 322z"/>
<path style="fill:#eddebc; stroke:none;" d="M193 322L194 323L193 322M232 322L232 323L238 323L232 322M242 322L243 323L242 322M300 323L300 324L307 323L300 323M312 322L313 323L312 322M339 322L339 323L342 323L339 322M343.667 322.333L344.333 322.667L343.667 322.333z"/>
<path style="fill:#fdb41b; stroke:none;" d="M345 322L346 323L345 322z"/>
<path style="fill:#eddebc; stroke:none;" d="M350 322L351 323L350 322M395 322L395 323L407 323L395 322M428.667 322.333L429.333 322.667L428.667 322.333M432.667 322.333L433.333 322.667L432.667 322.333M120 323L121 324L120 323M129 323L130 324L129 323M133.333 323.667L133.667 324.333L133.333 323.667M194 323L195 324L194 323M226 323L227 324L226 323M230 323L229 325L230 323z"/>
<path style="fill:#010101; stroke:none;" d="M231.279 324.028C223.997 328.6 229.706 344.537 238.606 338.82C245.956 334.099 240.285 318.373 231.279 324.028z"/>
<path style="fill:#eddebc; stroke:none;" d="M239 323L240 324L239 323M243 323L244 324L243 323z"/>
<path style="fill:#010101; stroke:none;" d="M301.225 323.743C293.449 327.26 297.811 342.968 306.891 339.253C314.927 335.965 310.795 319.414 301.225 323.743z"/>
<path style="fill:#eddebc; stroke:none;" d="M308 323L309 324L308 323z"/>
<path style="fill:#fdb41b; stroke:none;" d="M312 323L313 324L312 323M337 323L338 324L337 323z"/>
<path style="fill:#eddebc; stroke:none;" d="M338 323L339 324L338 323M346 323L347 324L346 323z"/>
<path style="fill:#fdb41b; stroke:none;" d="M350 323L351 324L350 323z"/>
<path style="fill:#eddebc; stroke:none;" d="M435 323L436 324L435 323M437 323L438 324L437 323M119 324L120 325L119 324M130 324L131 325L130 324M191.333 324.667L191.667 325.333L191.333 324.667M225.333 324.667L225.667 325.333L225.333 324.667M240 324L241 325L240 324M244.333 324.667L244.667 325.333L244.333 324.667M309 324L310 325L309 324M313 324L314 325L313 324M347 324L348 325L347 324M350 324L351 325L350 324M426 324L427 325L426 324M436 324L437 325L436 324M131.667 325.333L132.333 325.667L131.667 325.333M195 325L196 326L195 325M294 325L295 326L294 325M298 325L299 326L298 325z"/>
<path style="fill:#fdb41b; stroke:none;" d="M310 325L311 326L310 325z"/>
<path style="fill:#eddebc; stroke:none;" d="M332 325L333 326L332 325M336 325L337 326L336 325M348.667 325.333L349.333 325.667L348.667 325.333M118.333 326.667L118.667 327.333L118.333 326.667M192 326L193 327L192 326M196 326L197 327L196 326M228.333 326.667L228.667 327.333L228.333 326.667M241.333 326.667L241.667 327.333L241.333 326.667z"/>
<path style="fill:#fdb41b; stroke:none;" d="M297 326L298 327L297 326z"/>
<path style="fill:#eddebc; stroke:none;" d="M310 326L311 327L310 326M314 326L314 329L315 329L314 326z"/>
<path style="fill:#fdb41b; stroke:none;" d="M332 326L333 327L332 326M335 326L336 327L335 326z"/>
<path style="fill:#eddebc; stroke:none;" d="M426 326L427 327L426 326M114 327L114 335L115 335L114 327z"/>
<path style="fill:#fdb41b; stroke:none;" d="M196 327L197 328L196 327z"/>
<path style="fill:#eddebc; stroke:none;" d="M224 327L224 336L225 336L224 327M245 327L245 335L246 335L245 327M297.333 327.667L297.667 328.333L297.333 327.667M335.333 327.667L335.667 328.333L335.333 327.667M423.333 327.667L423.667 328.333L423.333 327.667M193 328L194 329L193 328M197 328L198 329L197 328M428 328L429 329L428 328M194 329L195 330L194 329M293 329L293 334L294 334L293 329M311 329L311 334L312 334L311 329M331 329L331 334L332 334L331 329M395 329L395 330L405 330L405 332L395 332L395 333L406 333L406 329L395 329M424 329L425 330L424 329M431.667 329.333L432.333 329.667L431.667 329.333M198 330L199 331L198 330M341 333L342 333L351 331C347.873 329.198 341.895 328.825 341 333M425 330L426 331L425 330M434.667 330.333L435.333 330.667L434.667 330.333z"/>
<path style="fill:#fdb41b; stroke:none;" d="M117 331L118 332L117 331z"/>
<path style="fill:#eddebc; stroke:none;" d="M195 331L196 332L195 331M199 331L200 332L199 331z"/>
<path style="fill:#fdb41b; stroke:none;" d="M227 331L228 332L227 331z"/>
<path style="fill:#eddebc; stroke:none;" d="M426.667 331.333L427.333 331.667L426.667 331.333M436 331L437 332L436 331M196.333 332.667L196.667 333.333L196.333 332.667M430.667 332.333L431.333 332.667L430.667 332.333M200 333L201 334L200 333z"/>
<path style="fill:#fdb41b; stroke:none;" d="M314 333L315 334L314 333z"/>
<path style="fill:#eddebc; stroke:none;" d="M433 333L434 334L433 333z"/>
<path style="fill:#fdb41b; stroke:none;" d="M434 333L435 334L434 333z"/>
<path style="fill:#eddebc; stroke:none;" d="M438 333L439 334L438 333M197 334L198 335L197 334M201 334L202 335L201 334M297.333 334.667L297.667 335.333L297.333 334.667M314.333 334.667L314.667 335.333L314.333 334.667M335.333 334.667L335.667 335.333L335.333 334.667M435 334L436 335L435 334M118.333 335.667L118.667 336.333L118.333 335.667M228.333 335.667L228.667 336.333L228.333 335.667M241.333 335.667L241.667 336.333L241.333 335.667M133 336L134 337L133 336M198 336L199 337L198 336M202 336L203 337L202 336z"/>
<path style="fill:#fdb41b; stroke:none;" d="M294 336L295 337L294 336z"/>
<path style="fill:#eddebc; stroke:none;" d="M310 336L311 337L310 336z"/>
<path style="fill:#fdb41b; stroke:none;" d="M332 336L333 337L332 336M335 336L336 337L335 336z"/>
<path style="fill:#eddebc; stroke:none;" d="M439.333 336.667L439.667 337.333L439.333 336.667M115 337L116 338L115 337M119 337L120 338L119 337M130 337L131 338L130 337M199 337L200 338L199 337M225.333 337.667L225.667 338.333L225.333 337.667M240 337L241 338L240 337M244 337L245 338L244 337M294 337L295 338L294 337M298 337L299 338L298 337z"/>
<path style="fill:#fdb41b; stroke:none;" d="M313 337L314 338L313 337z"/>
<path style="fill:#eddebc; stroke:none;" d="M332 337L333 338L332 337M336 337L337 338L336 337M347 337L348 338L347 337M423 337L424 338L423 337M133 338L134 339L133 338M229 338L230 339L229 338z"/>
<path style="fill:#fdb41b; stroke:none;" d="M240 338L241 339L240 338z"/>
<path style="fill:#eddebc; stroke:none;" d="M299 338L300 339L299 338M309 338L310 339L309 338M313 338L314 339L313 338M422.333 338.667L422.667 339.333L422.333 338.667M425 338L426 339L425 338M435 338L436 339L435 338M116 339L117 340L116 339M121 339L122 340L121 339M128 339L129 340L128 339M200 339L201 340L200 339M226 339L227 340L226 339z"/>
<path style="fill:#fdb41b; stroke:none;" d="M230 339L231 340L230 339z"/>
<path style="fill:#eddebc; stroke:none;" d="M231 339L232 340L231 339M238 339L239 340L238 339M243 339L244 340L243 339M295 339L296 340L295 339M300 339L301 340L300 339M307.667 339.333L308.333 339.667L307.667 339.333M312 339L313 340L312 339M333 339L334 340L333 339M338 339L339 340L338 339M346 339L347 340L346 339M427 339L428 340L427 339M434 339L435 340L434 339M438.333 339.667L438.667 340.333L438.333 339.667M117 340L118 341L117 340M123 340L123 341L127 341L123 340z"/>
<path style="fill:#fdb41b; stroke:none;" d="M127 340L128 341L127 340z"/>
<path style="fill:#eddebc; stroke:none;" d="M132 340L133 341L132 340z"/>
<path style="fill:#fdb41b; stroke:none;" d="M201 340L202 341L201 340z"/>
<path style="fill:#eddebc; stroke:none;" d="M227 340L228 341L227 340M233 340L233 341L237 341L233 340M242 340L243 341L242 340M267 340L267 341L278 341L267 340M296 340L297 341L296 340M302 340L302 341L306 341L302 340z"/>
<path style="fill:#fdb41b; stroke:none;" d="M306 340L307 341L306 340z"/>
<path style="fill:#eddebc; stroke:none;" d="M334 340L335 341L334 340M340 340L340 341L345 341L340 340M395 340L395 341L407 341L395 340M423 340L424 341L423 340M429 340L429 341L434 341L429 340M98.3333 341.667L98.6667 342.333L98.3333 341.667M118 341L119 342L118 341M131 341L132 342L131 341M201 341L202 342L201 341M228 341L229 342L228 341M241 341L242 342L241 341M297 341L298 342L297 341M310 341L311 342L310 341M335 341L336 342L335 341M347 341L348 342L347 341M424 341L425 342L424 341M437 341L438 342L437 341M119.667 342.333L120.333 342.667L119.667 342.333M129.667 342.333L130.333 342.667L129.667 342.333M202 342L203 343L202 342M229.667 342.333L230.333 342.667L229.667 342.333M239.667 342.333L240.333 342.667L239.667 342.333M298.667 342.333L299.333 342.667L298.667 342.333M309 342L310 343L309 342M336 342L337 343L336 342z"/>
<path style="fill:#fdb41b; stroke:none;" d="M337 342L338 343L337 342M345 342L346 343L345 342z"/>
<path style="fill:#eddebc; stroke:none;" d="M346 342L347 343L346 342M425.667 342.333L426.333 342.667L425.667 342.333M435.667 342.333L436.333 342.667L435.667 342.333M122 343L122 344L128 344L122 343M232 343L232 344L238 344L232 343M301 343L301 344L307 344L301 343M339 343L339 344L344 344L339 343M428 343L428 344L434 344L428 343z"/>
</svg>
